<?xml version="1.0" encoding="utf-8" standalone="no"?>
<!DOCTYPE svg PUBLIC "-//W3C//DTD SVG 1.1//EN"
  "http://www.w3.org/Graphics/SVG/1.1/DTD/svg11.dtd">
<!-- Created with matplotlib (https://matplotlib.org/) -->
<svg height="360pt" version="1.1" viewBox="0 0 720 360" width="720pt" xmlns="http://www.w3.org/2000/svg" xmlns:xlink="http://www.w3.org/1999/xlink">
 <defs>
  <style type="text/css">
*{stroke-linecap:butt;stroke-linejoin:round;}
  </style>
 </defs>
 <g id="figure_1">
  <g id="patch_1">
   <path d="M 0 360 
L 720 360 
L 720 0 
L 0 0 
z
" style="fill:#ffffff;"/>
  </g>
  <g id="axes_1">
   <g id="patch_2">
    <path d="M 84.875 307.75 
L 348.595823 307.75 
L 348.595823 13.5 
L 84.875 13.5 
z
" style="fill:#ffffff;"/>
   </g>
   <g id="matplotlib.axis_1">
    <g id="xtick_1">
     <g id="line2d_1">
      <defs>
       <path d="M 0 0 
L 0 3.5 
" id="m309a1a1350" style="stroke:#000000;stroke-width:0.8;"/>
      </defs>
      <g>
       <use style="stroke:#000000;stroke-width:0.8;" x="96.86231" xlink:href="#m309a1a1350" y="307.75"/>
      </g>
     </g>
     <g id="text_1">
      <!-- 0 -->
      <defs>
       <path d="M 31.78125 66.40625 
Q 24.171875 66.40625 20.328125 58.90625 
Q 16.5 51.421875 16.5 36.375 
Q 16.5 21.390625 20.328125 13.890625 
Q 24.171875 6.390625 31.78125 6.390625 
Q 39.453125 6.390625 43.28125 13.890625 
Q 47.125 21.390625 47.125 36.375 
Q 47.125 51.421875 43.28125 58.90625 
Q 39.453125 66.40625 31.78125 66.40625 
z
M 31.78125 74.21875 
Q 44.046875 74.21875 50.515625 64.515625 
Q 56.984375 54.828125 56.984375 36.375 
Q 56.984375 17.96875 50.515625 8.265625 
Q 44.046875 -1.421875 31.78125 -1.421875 
Q 19.53125 -1.421875 13.0625 8.265625 
Q 6.59375 17.96875 6.59375 36.375 
Q 6.59375 54.828125 13.0625 64.515625 
Q 19.53125 74.21875 31.78125 74.21875 
z
" id="DejaVuSans-48"/>
      </defs>
      <g transform="translate(93.68106 322.348437)scale(0.1 -0.1)">
       <use xlink:href="#DejaVuSans-48"/>
      </g>
     </g>
    </g>
    <g id="xtick_2">
     <g id="line2d_2">
      <g>
       <use style="stroke:#000000;stroke-width:0.8;" x="158.335695" xlink:href="#m309a1a1350" y="307.75"/>
      </g>
     </g>
     <g id="text_2">
      <!-- 10 -->
      <defs>
       <path d="M 12.40625 8.296875 
L 28.515625 8.296875 
L 28.515625 63.921875 
L 10.984375 60.40625 
L 10.984375 69.390625 
L 28.421875 72.90625 
L 38.28125 72.90625 
L 38.28125 8.296875 
L 54.390625 8.296875 
L 54.390625 0 
L 12.40625 0 
z
" id="DejaVuSans-49"/>
      </defs>
      <g transform="translate(151.973195 322.348437)scale(0.1 -0.1)">
       <use xlink:href="#DejaVuSans-49"/>
       <use x="63.623047" xlink:href="#DejaVuSans-48"/>
      </g>
     </g>
    </g>
    <g id="xtick_3">
     <g id="line2d_3">
      <g>
       <use style="stroke:#000000;stroke-width:0.8;" x="219.809081" xlink:href="#m309a1a1350" y="307.75"/>
      </g>
     </g>
     <g id="text_3">
      <!-- 20 -->
      <defs>
       <path d="M 19.1875 8.296875 
L 53.609375 8.296875 
L 53.609375 0 
L 7.328125 0 
L 7.328125 8.296875 
Q 12.9375 14.109375 22.625 23.890625 
Q 32.328125 33.6875 34.8125 36.53125 
Q 39.546875 41.84375 41.421875 45.53125 
Q 43.3125 49.21875 43.3125 52.78125 
Q 43.3125 58.59375 39.234375 62.25 
Q 35.15625 65.921875 28.609375 65.921875 
Q 23.96875 65.921875 18.8125 64.3125 
Q 13.671875 62.703125 7.8125 59.421875 
L 7.8125 69.390625 
Q 13.765625 71.78125 18.9375 73 
Q 24.125 74.21875 28.421875 74.21875 
Q 39.75 74.21875 46.484375 68.546875 
Q 53.21875 62.890625 53.21875 53.421875 
Q 53.21875 48.921875 51.53125 44.890625 
Q 49.859375 40.875 45.40625 35.40625 
Q 44.1875 33.984375 37.640625 27.21875 
Q 31.109375 20.453125 19.1875 8.296875 
z
" id="DejaVuSans-50"/>
      </defs>
      <g transform="translate(213.446581 322.348437)scale(0.1 -0.1)">
       <use xlink:href="#DejaVuSans-50"/>
       <use x="63.623047" xlink:href="#DejaVuSans-48"/>
      </g>
     </g>
    </g>
    <g id="xtick_4">
     <g id="line2d_4">
      <g>
       <use style="stroke:#000000;stroke-width:0.8;" x="281.282466" xlink:href="#m309a1a1350" y="307.75"/>
      </g>
     </g>
     <g id="text_4">
      <!-- 30 -->
      <defs>
       <path d="M 40.578125 39.3125 
Q 47.65625 37.796875 51.625 33 
Q 55.609375 28.21875 55.609375 21.1875 
Q 55.609375 10.40625 48.1875 4.484375 
Q 40.765625 -1.421875 27.09375 -1.421875 
Q 22.515625 -1.421875 17.65625 -0.515625 
Q 12.796875 0.390625 7.625 2.203125 
L 7.625 11.71875 
Q 11.71875 9.328125 16.59375 8.109375 
Q 21.484375 6.890625 26.8125 6.890625 
Q 36.078125 6.890625 40.9375 10.546875 
Q 45.796875 14.203125 45.796875 21.1875 
Q 45.796875 27.640625 41.28125 31.265625 
Q 36.765625 34.90625 28.71875 34.90625 
L 20.21875 34.90625 
L 20.21875 43.015625 
L 29.109375 43.015625 
Q 36.375 43.015625 40.234375 45.921875 
Q 44.09375 48.828125 44.09375 54.296875 
Q 44.09375 59.90625 40.109375 62.90625 
Q 36.140625 65.921875 28.71875 65.921875 
Q 24.65625 65.921875 20.015625 65.03125 
Q 15.375 64.15625 9.8125 62.3125 
L 9.8125 71.09375 
Q 15.4375 72.65625 20.34375 73.4375 
Q 25.25 74.21875 29.59375 74.21875 
Q 40.828125 74.21875 47.359375 69.109375 
Q 53.90625 64.015625 53.90625 55.328125 
Q 53.90625 49.265625 50.4375 45.09375 
Q 46.96875 40.921875 40.578125 39.3125 
z
" id="DejaVuSans-51"/>
      </defs>
      <g transform="translate(274.919966 322.348437)scale(0.1 -0.1)">
       <use xlink:href="#DejaVuSans-51"/>
       <use x="63.623047" xlink:href="#DejaVuSans-48"/>
      </g>
     </g>
    </g>
    <g id="xtick_5">
     <g id="line2d_5">
      <g>
       <use style="stroke:#000000;stroke-width:0.8;" x="342.755851" xlink:href="#m309a1a1350" y="307.75"/>
      </g>
     </g>
     <g id="text_5">
      <!-- 40 -->
      <defs>
       <path d="M 37.796875 64.3125 
L 12.890625 25.390625 
L 37.796875 25.390625 
z
M 35.203125 72.90625 
L 47.609375 72.90625 
L 47.609375 25.390625 
L 58.015625 25.390625 
L 58.015625 17.1875 
L 47.609375 17.1875 
L 47.609375 0 
L 37.796875 0 
L 37.796875 17.1875 
L 4.890625 17.1875 
L 4.890625 26.703125 
z
" id="DejaVuSans-52"/>
      </defs>
      <g transform="translate(336.393351 322.348437)scale(0.1 -0.1)">
       <use xlink:href="#DejaVuSans-52"/>
       <use x="63.623047" xlink:href="#DejaVuSans-48"/>
      </g>
     </g>
    </g>
    <g id="text_6">
     <!-- time in 5 second steps -->
     <defs>
      <path d="M 18.3125 70.21875 
L 18.3125 54.6875 
L 36.8125 54.6875 
L 36.8125 47.703125 
L 18.3125 47.703125 
L 18.3125 18.015625 
Q 18.3125 11.328125 20.140625 9.421875 
Q 21.96875 7.515625 27.59375 7.515625 
L 36.8125 7.515625 
L 36.8125 0 
L 27.59375 0 
Q 17.1875 0 13.234375 3.875 
Q 9.28125 7.765625 9.28125 18.015625 
L 9.28125 47.703125 
L 2.6875 47.703125 
L 2.6875 54.6875 
L 9.28125 54.6875 
L 9.28125 70.21875 
z
" id="DejaVuSans-116"/>
      <path d="M 9.421875 54.6875 
L 18.40625 54.6875 
L 18.40625 0 
L 9.421875 0 
z
M 9.421875 75.984375 
L 18.40625 75.984375 
L 18.40625 64.59375 
L 9.421875 64.59375 
z
" id="DejaVuSans-105"/>
      <path d="M 52 44.1875 
Q 55.375 50.25 60.0625 53.125 
Q 64.75 56 71.09375 56 
Q 79.640625 56 84.28125 50.015625 
Q 88.921875 44.046875 88.921875 33.015625 
L 88.921875 0 
L 79.890625 0 
L 79.890625 32.71875 
Q 79.890625 40.578125 77.09375 44.375 
Q 74.3125 48.1875 68.609375 48.1875 
Q 61.625 48.1875 57.5625 43.546875 
Q 53.515625 38.921875 53.515625 30.90625 
L 53.515625 0 
L 44.484375 0 
L 44.484375 32.71875 
Q 44.484375 40.625 41.703125 44.40625 
Q 38.921875 48.1875 33.109375 48.1875 
Q 26.21875 48.1875 22.15625 43.53125 
Q 18.109375 38.875 18.109375 30.90625 
L 18.109375 0 
L 9.078125 0 
L 9.078125 54.6875 
L 18.109375 54.6875 
L 18.109375 46.1875 
Q 21.1875 51.21875 25.484375 53.609375 
Q 29.78125 56 35.6875 56 
Q 41.65625 56 45.828125 52.96875 
Q 50 49.953125 52 44.1875 
z
" id="DejaVuSans-109"/>
      <path d="M 56.203125 29.59375 
L 56.203125 25.203125 
L 14.890625 25.203125 
Q 15.484375 15.921875 20.484375 11.0625 
Q 25.484375 6.203125 34.421875 6.203125 
Q 39.59375 6.203125 44.453125 7.46875 
Q 49.3125 8.734375 54.109375 11.28125 
L 54.109375 2.78125 
Q 49.265625 0.734375 44.1875 -0.34375 
Q 39.109375 -1.421875 33.890625 -1.421875 
Q 20.796875 -1.421875 13.15625 6.1875 
Q 5.515625 13.8125 5.515625 26.8125 
Q 5.515625 40.234375 12.765625 48.109375 
Q 20.015625 56 32.328125 56 
Q 43.359375 56 49.78125 48.890625 
Q 56.203125 41.796875 56.203125 29.59375 
z
M 47.21875 32.234375 
Q 47.125 39.59375 43.09375 43.984375 
Q 39.0625 48.390625 32.421875 48.390625 
Q 24.90625 48.390625 20.390625 44.140625 
Q 15.875 39.890625 15.1875 32.171875 
z
" id="DejaVuSans-101"/>
      <path id="DejaVuSans-32"/>
      <path d="M 54.890625 33.015625 
L 54.890625 0 
L 45.90625 0 
L 45.90625 32.71875 
Q 45.90625 40.484375 42.875 44.328125 
Q 39.84375 48.1875 33.796875 48.1875 
Q 26.515625 48.1875 22.3125 43.546875 
Q 18.109375 38.921875 18.109375 30.90625 
L 18.109375 0 
L 9.078125 0 
L 9.078125 54.6875 
L 18.109375 54.6875 
L 18.109375 46.1875 
Q 21.34375 51.125 25.703125 53.5625 
Q 30.078125 56 35.796875 56 
Q 45.21875 56 50.046875 50.171875 
Q 54.890625 44.34375 54.890625 33.015625 
z
" id="DejaVuSans-110"/>
      <path d="M 10.796875 72.90625 
L 49.515625 72.90625 
L 49.515625 64.59375 
L 19.828125 64.59375 
L 19.828125 46.734375 
Q 21.96875 47.46875 24.109375 47.828125 
Q 26.265625 48.1875 28.421875 48.1875 
Q 40.625 48.1875 47.75 41.5 
Q 54.890625 34.8125 54.890625 23.390625 
Q 54.890625 11.625 47.5625 5.09375 
Q 40.234375 -1.421875 26.90625 -1.421875 
Q 22.3125 -1.421875 17.546875 -0.640625 
Q 12.796875 0.140625 7.71875 1.703125 
L 7.71875 11.625 
Q 12.109375 9.234375 16.796875 8.0625 
Q 21.484375 6.890625 26.703125 6.890625 
Q 35.15625 6.890625 40.078125 11.328125 
Q 45.015625 15.765625 45.015625 23.390625 
Q 45.015625 31 40.078125 35.4375 
Q 35.15625 39.890625 26.703125 39.890625 
Q 22.75 39.890625 18.8125 39.015625 
Q 14.890625 38.140625 10.796875 36.28125 
z
" id="DejaVuSans-53"/>
      <path d="M 44.28125 53.078125 
L 44.28125 44.578125 
Q 40.484375 46.53125 36.375 47.5 
Q 32.28125 48.484375 27.875 48.484375 
Q 21.1875 48.484375 17.84375 46.4375 
Q 14.5 44.390625 14.5 40.28125 
Q 14.5 37.15625 16.890625 35.375 
Q 19.28125 33.59375 26.515625 31.984375 
L 29.59375 31.296875 
Q 39.15625 29.25 43.1875 25.515625 
Q 47.21875 21.78125 47.21875 15.09375 
Q 47.21875 7.46875 41.1875 3.015625 
Q 35.15625 -1.421875 24.609375 -1.421875 
Q 20.21875 -1.421875 15.453125 -0.5625 
Q 10.6875 0.296875 5.421875 2 
L 5.421875 11.28125 
Q 10.40625 8.6875 15.234375 7.390625 
Q 20.0625 6.109375 24.8125 6.109375 
Q 31.15625 6.109375 34.5625 8.28125 
Q 37.984375 10.453125 37.984375 14.40625 
Q 37.984375 18.0625 35.515625 20.015625 
Q 33.0625 21.96875 24.703125 23.78125 
L 21.578125 24.515625 
Q 13.234375 26.265625 9.515625 29.90625 
Q 5.8125 33.546875 5.8125 39.890625 
Q 5.8125 47.609375 11.28125 51.796875 
Q 16.75 56 26.8125 56 
Q 31.78125 56 36.171875 55.265625 
Q 40.578125 54.546875 44.28125 53.078125 
z
" id="DejaVuSans-115"/>
      <path d="M 48.78125 52.59375 
L 48.78125 44.1875 
Q 44.96875 46.296875 41.140625 47.34375 
Q 37.3125 48.390625 33.40625 48.390625 
Q 24.65625 48.390625 19.8125 42.84375 
Q 14.984375 37.3125 14.984375 27.296875 
Q 14.984375 17.28125 19.8125 11.734375 
Q 24.65625 6.203125 33.40625 6.203125 
Q 37.3125 6.203125 41.140625 7.25 
Q 44.96875 8.296875 48.78125 10.40625 
L 48.78125 2.09375 
Q 45.015625 0.34375 40.984375 -0.53125 
Q 36.96875 -1.421875 32.421875 -1.421875 
Q 20.0625 -1.421875 12.78125 6.34375 
Q 5.515625 14.109375 5.515625 27.296875 
Q 5.515625 40.671875 12.859375 48.328125 
Q 20.21875 56 33.015625 56 
Q 37.15625 56 41.109375 55.140625 
Q 45.0625 54.296875 48.78125 52.59375 
z
" id="DejaVuSans-99"/>
      <path d="M 30.609375 48.390625 
Q 23.390625 48.390625 19.1875 42.75 
Q 14.984375 37.109375 14.984375 27.296875 
Q 14.984375 17.484375 19.15625 11.84375 
Q 23.34375 6.203125 30.609375 6.203125 
Q 37.796875 6.203125 41.984375 11.859375 
Q 46.1875 17.53125 46.1875 27.296875 
Q 46.1875 37.015625 41.984375 42.703125 
Q 37.796875 48.390625 30.609375 48.390625 
z
M 30.609375 56 
Q 42.328125 56 49.015625 48.375 
Q 55.71875 40.765625 55.71875 27.296875 
Q 55.71875 13.875 49.015625 6.21875 
Q 42.328125 -1.421875 30.609375 -1.421875 
Q 18.84375 -1.421875 12.171875 6.21875 
Q 5.515625 13.875 5.515625 27.296875 
Q 5.515625 40.765625 12.171875 48.375 
Q 18.84375 56 30.609375 56 
z
" id="DejaVuSans-111"/>
      <path d="M 45.40625 46.390625 
L 45.40625 75.984375 
L 54.390625 75.984375 
L 54.390625 0 
L 45.40625 0 
L 45.40625 8.203125 
Q 42.578125 3.328125 38.25 0.953125 
Q 33.9375 -1.421875 27.875 -1.421875 
Q 17.96875 -1.421875 11.734375 6.484375 
Q 5.515625 14.40625 5.515625 27.296875 
Q 5.515625 40.1875 11.734375 48.09375 
Q 17.96875 56 27.875 56 
Q 33.9375 56 38.25 53.625 
Q 42.578125 51.265625 45.40625 46.390625 
z
M 14.796875 27.296875 
Q 14.796875 17.390625 18.875 11.75 
Q 22.953125 6.109375 30.078125 6.109375 
Q 37.203125 6.109375 41.296875 11.75 
Q 45.40625 17.390625 45.40625 27.296875 
Q 45.40625 37.203125 41.296875 42.84375 
Q 37.203125 48.484375 30.078125 48.484375 
Q 22.953125 48.484375 18.875 42.84375 
Q 14.796875 37.203125 14.796875 27.296875 
z
" id="DejaVuSans-100"/>
      <path d="M 18.109375 8.203125 
L 18.109375 -20.796875 
L 9.078125 -20.796875 
L 9.078125 54.6875 
L 18.109375 54.6875 
L 18.109375 46.390625 
Q 20.953125 51.265625 25.265625 53.625 
Q 29.59375 56 35.59375 56 
Q 45.5625 56 51.78125 48.09375 
Q 58.015625 40.1875 58.015625 27.296875 
Q 58.015625 14.40625 51.78125 6.484375 
Q 45.5625 -1.421875 35.59375 -1.421875 
Q 29.59375 -1.421875 25.265625 0.953125 
Q 20.953125 3.328125 18.109375 8.203125 
z
M 48.6875 27.296875 
Q 48.6875 37.203125 44.609375 42.84375 
Q 40.53125 48.484375 33.40625 48.484375 
Q 26.265625 48.484375 22.1875 42.84375 
Q 18.109375 37.203125 18.109375 27.296875 
Q 18.109375 17.390625 22.1875 11.75 
Q 26.265625 6.109375 33.40625 6.109375 
Q 40.53125 6.109375 44.609375 11.75 
Q 48.6875 17.390625 48.6875 27.296875 
z
" id="DejaVuSans-112"/>
     </defs>
     <g transform="translate(160.09088 336.026563)scale(0.1 -0.1)">
      <use xlink:href="#DejaVuSans-116"/>
      <use x="39.208984" xlink:href="#DejaVuSans-105"/>
      <use x="66.992188" xlink:href="#DejaVuSans-109"/>
      <use x="164.404297" xlink:href="#DejaVuSans-101"/>
      <use x="225.927734" xlink:href="#DejaVuSans-32"/>
      <use x="257.714844" xlink:href="#DejaVuSans-105"/>
      <use x="285.498047" xlink:href="#DejaVuSans-110"/>
      <use x="348.876953" xlink:href="#DejaVuSans-32"/>
      <use x="380.664062" xlink:href="#DejaVuSans-53"/>
      <use x="444.287109" xlink:href="#DejaVuSans-32"/>
      <use x="476.074219" xlink:href="#DejaVuSans-115"/>
      <use x="528.173828" xlink:href="#DejaVuSans-101"/>
      <use x="589.697266" xlink:href="#DejaVuSans-99"/>
      <use x="644.677734" xlink:href="#DejaVuSans-111"/>
      <use x="705.859375" xlink:href="#DejaVuSans-110"/>
      <use x="769.238281" xlink:href="#DejaVuSans-100"/>
      <use x="832.714844" xlink:href="#DejaVuSans-32"/>
      <use x="864.501953" xlink:href="#DejaVuSans-115"/>
      <use x="916.601562" xlink:href="#DejaVuSans-116"/>
      <use x="955.810547" xlink:href="#DejaVuSans-101"/>
      <use x="1017.333984" xlink:href="#DejaVuSans-112"/>
      <use x="1080.810547" xlink:href="#DejaVuSans-115"/>
     </g>
    </g>
   </g>
   <g id="matplotlib.axis_2">
    <g id="ytick_1">
     <g id="line2d_6">
      <defs>
       <path d="M 0 0 
L -3.5 0 
" id="m5222c702a0" style="stroke:#000000;stroke-width:0.8;"/>
      </defs>
      <g>
       <use style="stroke:#000000;stroke-width:0.8;" x="84.875" xlink:href="#m5222c702a0" y="294.375"/>
      </g>
     </g>
     <g id="text_7">
      <!-- 0 -->
      <g transform="translate(71.5125 298.174219)scale(0.1 -0.1)">
       <use xlink:href="#DejaVuSans-48"/>
      </g>
     </g>
    </g>
    <g id="ytick_2">
     <g id="line2d_7">
      <g>
       <use style="stroke:#000000;stroke-width:0.8;" x="84.875" xlink:href="#m5222c702a0" y="240.544517"/>
      </g>
     </g>
     <g id="text_8">
      <!-- 50 -->
      <g transform="translate(65.15 244.343736)scale(0.1 -0.1)">
       <use xlink:href="#DejaVuSans-53"/>
       <use x="63.623047" xlink:href="#DejaVuSans-48"/>
      </g>
     </g>
    </g>
    <g id="ytick_3">
     <g id="line2d_8">
      <g>
       <use style="stroke:#000000;stroke-width:0.8;" x="84.875" xlink:href="#m5222c702a0" y="186.714034"/>
      </g>
     </g>
     <g id="text_9">
      <!-- 100 -->
      <g transform="translate(58.7875 190.513253)scale(0.1 -0.1)">
       <use xlink:href="#DejaVuSans-49"/>
       <use x="63.623047" xlink:href="#DejaVuSans-48"/>
       <use x="127.246094" xlink:href="#DejaVuSans-48"/>
      </g>
     </g>
    </g>
    <g id="ytick_4">
     <g id="line2d_9">
      <g>
       <use style="stroke:#000000;stroke-width:0.8;" x="84.875" xlink:href="#m5222c702a0" y="132.883551"/>
      </g>
     </g>
     <g id="text_10">
      <!-- 150 -->
      <g transform="translate(58.7875 136.68277)scale(0.1 -0.1)">
       <use xlink:href="#DejaVuSans-49"/>
       <use x="63.623047" xlink:href="#DejaVuSans-53"/>
       <use x="127.246094" xlink:href="#DejaVuSans-48"/>
      </g>
     </g>
    </g>
    <g id="ytick_5">
     <g id="line2d_10">
      <g>
       <use style="stroke:#000000;stroke-width:0.8;" x="84.875" xlink:href="#m5222c702a0" y="79.053068"/>
      </g>
     </g>
     <g id="text_11">
      <!-- 200 -->
      <g transform="translate(58.7875 82.852287)scale(0.1 -0.1)">
       <use xlink:href="#DejaVuSans-50"/>
       <use x="63.623047" xlink:href="#DejaVuSans-48"/>
       <use x="127.246094" xlink:href="#DejaVuSans-48"/>
      </g>
     </g>
    </g>
    <g id="ytick_6">
     <g id="line2d_11">
      <g>
       <use style="stroke:#000000;stroke-width:0.8;" x="84.875" xlink:href="#m5222c702a0" y="25.222585"/>
      </g>
     </g>
     <g id="text_12">
      <!-- 250 -->
      <g transform="translate(58.7875 29.021804)scale(0.1 -0.1)">
       <use xlink:href="#DejaVuSans-50"/>
       <use x="63.623047" xlink:href="#DejaVuSans-53"/>
       <use x="127.246094" xlink:href="#DejaVuSans-48"/>
      </g>
     </g>
    </g>
    <g id="text_13">
     <!-- mean over summed travel distances -->
     <defs>
      <path d="M 34.28125 27.484375 
Q 23.390625 27.484375 19.1875 25 
Q 14.984375 22.515625 14.984375 16.5 
Q 14.984375 11.71875 18.140625 8.90625 
Q 21.296875 6.109375 26.703125 6.109375 
Q 34.1875 6.109375 38.703125 11.40625 
Q 43.21875 16.703125 43.21875 25.484375 
L 43.21875 27.484375 
z
M 52.203125 31.203125 
L 52.203125 0 
L 43.21875 0 
L 43.21875 8.296875 
Q 40.140625 3.328125 35.546875 0.953125 
Q 30.953125 -1.421875 24.3125 -1.421875 
Q 15.921875 -1.421875 10.953125 3.296875 
Q 6 8.015625 6 15.921875 
Q 6 25.140625 12.171875 29.828125 
Q 18.359375 34.515625 30.609375 34.515625 
L 43.21875 34.515625 
L 43.21875 35.40625 
Q 43.21875 41.609375 39.140625 45 
Q 35.0625 48.390625 27.6875 48.390625 
Q 23 48.390625 18.546875 47.265625 
Q 14.109375 46.140625 10.015625 43.890625 
L 10.015625 52.203125 
Q 14.9375 54.109375 19.578125 55.046875 
Q 24.21875 56 28.609375 56 
Q 40.484375 56 46.34375 49.84375 
Q 52.203125 43.703125 52.203125 31.203125 
z
" id="DejaVuSans-97"/>
      <path d="M 2.984375 54.6875 
L 12.5 54.6875 
L 29.59375 8.796875 
L 46.6875 54.6875 
L 56.203125 54.6875 
L 35.6875 0 
L 23.484375 0 
z
" id="DejaVuSans-118"/>
      <path d="M 41.109375 46.296875 
Q 39.59375 47.171875 37.8125 47.578125 
Q 36.03125 48 33.890625 48 
Q 26.265625 48 22.1875 43.046875 
Q 18.109375 38.09375 18.109375 28.8125 
L 18.109375 0 
L 9.078125 0 
L 9.078125 54.6875 
L 18.109375 54.6875 
L 18.109375 46.1875 
Q 20.953125 51.171875 25.484375 53.578125 
Q 30.03125 56 36.53125 56 
Q 37.453125 56 38.578125 55.875 
Q 39.703125 55.765625 41.0625 55.515625 
z
" id="DejaVuSans-114"/>
      <path d="M 8.5 21.578125 
L 8.5 54.6875 
L 17.484375 54.6875 
L 17.484375 21.921875 
Q 17.484375 14.15625 20.5 10.265625 
Q 23.53125 6.390625 29.59375 6.390625 
Q 36.859375 6.390625 41.078125 11.03125 
Q 45.3125 15.671875 45.3125 23.6875 
L 45.3125 54.6875 
L 54.296875 54.6875 
L 54.296875 0 
L 45.3125 0 
L 45.3125 8.40625 
Q 42.046875 3.421875 37.71875 1 
Q 33.40625 -1.421875 27.6875 -1.421875 
Q 18.265625 -1.421875 13.375 4.4375 
Q 8.5 10.296875 8.5 21.578125 
z
M 31.109375 56 
z
" id="DejaVuSans-117"/>
      <path d="M 9.421875 75.984375 
L 18.40625 75.984375 
L 18.40625 0 
L 9.421875 0 
z
" id="DejaVuSans-108"/>
     </defs>
     <g transform="translate(52.707813 252.372656)rotate(-90)scale(0.1 -0.1)">
      <use xlink:href="#DejaVuSans-109"/>
      <use x="97.412109" xlink:href="#DejaVuSans-101"/>
      <use x="158.935547" xlink:href="#DejaVuSans-97"/>
      <use x="220.214844" xlink:href="#DejaVuSans-110"/>
      <use x="283.59375" xlink:href="#DejaVuSans-32"/>
      <use x="315.380859" xlink:href="#DejaVuSans-111"/>
      <use x="376.5625" xlink:href="#DejaVuSans-118"/>
      <use x="435.742188" xlink:href="#DejaVuSans-101"/>
      <use x="497.265625" xlink:href="#DejaVuSans-114"/>
      <use x="538.378906" xlink:href="#DejaVuSans-32"/>
      <use x="570.166016" xlink:href="#DejaVuSans-115"/>
      <use x="622.265625" xlink:href="#DejaVuSans-117"/>
      <use x="685.644531" xlink:href="#DejaVuSans-109"/>
      <use x="783.056641" xlink:href="#DejaVuSans-109"/>
      <use x="880.46875" xlink:href="#DejaVuSans-101"/>
      <use x="941.992188" xlink:href="#DejaVuSans-100"/>
      <use x="1005.46875" xlink:href="#DejaVuSans-32"/>
      <use x="1037.255859" xlink:href="#DejaVuSans-116"/>
      <use x="1076.464844" xlink:href="#DejaVuSans-114"/>
      <use x="1117.578125" xlink:href="#DejaVuSans-97"/>
      <use x="1178.857422" xlink:href="#DejaVuSans-118"/>
      <use x="1238.037109" xlink:href="#DejaVuSans-101"/>
      <use x="1299.560547" xlink:href="#DejaVuSans-108"/>
      <use x="1327.34375" xlink:href="#DejaVuSans-32"/>
      <use x="1359.130859" xlink:href="#DejaVuSans-100"/>
      <use x="1422.607422" xlink:href="#DejaVuSans-105"/>
      <use x="1450.390625" xlink:href="#DejaVuSans-115"/>
      <use x="1502.490234" xlink:href="#DejaVuSans-116"/>
      <use x="1541.699219" xlink:href="#DejaVuSans-97"/>
      <use x="1602.978516" xlink:href="#DejaVuSans-110"/>
      <use x="1666.357422" xlink:href="#DejaVuSans-99"/>
      <use x="1721.337891" xlink:href="#DejaVuSans-101"/>
      <use x="1782.861328" xlink:href="#DejaVuSans-115"/>
     </g>
    </g>
   </g>
   <g id="line2d_12">
    <path clip-path="url(#peaa3cafdf4)" d="M 96.86231 294.375 
L 103.009649 285.74341 
L 109.156987 278.521683 
L 115.304326 270.915994 
L 121.451664 264.55339 
L 127.599003 258.620841 
L 133.746341 253.01579 
L 139.89368 248.299299 
L 146.041018 243.843865 
L 152.188357 238.856791 
L 158.335695 232.375773 
L 164.483034 226.816948 
L 170.630372 221.671046 
L 176.777711 217.565636 
L 182.925049 212.496151 
L 189.072388 205.387812 
L 195.219727 198.233896 
L 201.367065 191.792783 
L 207.514404 185.666624 
L 213.661742 179.108715 
L 219.809081 172.57282 
L 225.956419 165.177006 
L 232.103758 158.309635 
L 238.251096 152.538551 
L 244.398435 145.209073 
L 250.545773 141.281837 
L 256.693112 139.17859 
L 262.84045 136.697696 
L 268.987789 133.551792 
L 275.135127 130.461309 
L 281.282466 127.481429 
L 287.429804 123.596539 
L 293.577143 119.940931 
L 299.724481 116.107612 
L 305.87182 115.441556 
L 312.019159 114.965023 
L 318.166497 114.482046 
L 324.313836 113.4013 
L 330.461174 113.4013 
L 336.608513 113.4013 
" style="fill:none;stroke:#1f77b4;stroke-linecap:square;stroke-width:1.5;"/>
   </g>
   <g id="line2d_13">
    <path clip-path="url(#peaa3cafdf4)" d="M 96.86231 294.375 
L 103.009649 286.032621 
L 109.156987 278.517276 
L 115.304326 271.224088 
L 121.451664 264.358735 
L 127.599003 257.303881 
L 133.746341 250.273057 
L 139.89368 242.502645 
L 146.041018 236.155316 
L 152.188357 230.173564 
L 158.335695 222.931154 
L 164.483034 215.79014 
L 170.630372 209.476575 
L 176.777711 203.105929 
L 182.925049 195.70503 
L 189.072388 189.183275 
L 195.219727 183.276122 
L 201.367065 176.787652 
L 207.514404 169.578543 
L 213.661742 162.052822 
L 219.809081 155.620863 
L 225.956419 148.2369 
L 232.103758 141.139279 
L 238.251096 134.111979 
L 244.398435 127.094683 
L 250.545773 120.026207 
L 256.693112 113.284752 
L 262.84045 106.128838 
L 268.987789 99.072169 
L 275.135127 91.704822 
L 281.282466 83.828146 
L 287.429804 76.301945 
L 293.577143 69.556263 
L 299.724481 61.232508 
L 305.87182 53.58283 
L 312.019159 46.136341 
L 318.166497 39.644467 
L 324.313836 33.1281 
L 330.461174 26.875 
L 336.608513 26.875 
" style="fill:none;stroke:#ff7f0e;stroke-linecap:square;stroke-width:1.5;"/>
   </g>
   <g id="line2d_14">
    <path clip-path="url(#peaa3cafdf4)" d="M 96.86231 294.375 
L 103.009649 285.60976 
L 109.156987 278.42673 
L 115.304326 270.641547 
L 121.451664 262.808258 
L 127.599003 256.045596 
L 133.746341 250.538575 
L 139.89368 245.679173 
L 146.041018 240.51135 
L 152.188357 235.345955 
L 158.335695 228.828271 
L 164.483034 222.22513 
L 170.630372 217.157923 
L 176.777711 211.619822 
L 182.925049 206.627406 
L 189.072388 200.908239 
L 195.219727 194.353233 
L 201.367065 187.629531 
L 207.514404 181.562465 
L 213.661742 177.659021 
L 219.809081 174.435196 
L 225.956419 170.20811 
L 232.103758 167.235513 
L 238.251096 165.193645 
L 244.398435 163.011673 
L 250.545773 160.505849 
L 256.693112 157.986735 
L 262.84045 156.315527 
L 268.987789 154.526875 
L 275.135127 153.639589 
L 281.282466 153.639589 
L 287.429804 153.639589 
L 293.577143 153.639589 
L 299.724481 153.639589 
L 305.87182 153.639589 
L 312.019159 153.639589 
L 318.166497 153.639589 
L 324.313836 153.639589 
L 330.461174 153.639589 
L 336.608513 153.639589 
" style="fill:none;stroke:#2ca02c;stroke-linecap:square;stroke-width:1.5;"/>
   </g>
   <g id="line2d_15">
    <path clip-path="url(#peaa3cafdf4)" d="M 96.86231 294.375 
L 103.009649 285.335224 
L 109.156987 276.359504 
L 115.304326 268.14288 
L 121.451664 260.414643 
L 127.599003 253.371349 
L 133.746341 247.121344 
L 139.89368 240.310982 
L 146.041018 233.733986 
L 152.188357 228.07718 
L 158.335695 221.608712 
L 164.483034 213.916335 
L 170.630372 206.553231 
L 176.777711 199.507149 
L 182.925049 192.417646 
L 189.072388 185.878211 
L 195.219727 179.210899 
L 201.367065 173.403545 
L 207.514404 168.300637 
L 213.661742 161.146033 
L 219.809081 154.234293 
L 225.956419 148.175151 
L 232.103758 142.342576 
L 238.251096 139.32171 
L 244.398435 136.438859 
L 250.545773 134.970246 
L 256.693112 133.169188 
L 262.84045 131.448854 
L 268.987789 130.009783 
L 275.135127 128.98285 
L 281.282466 128.144482 
L 287.429804 127.960676 
L 293.577143 127.80692 
L 299.724481 127.589761 
L 305.87182 127.259137 
L 312.019159 126.944714 
L 318.166497 126.742419 
L 324.313836 126.415855 
L 330.461174 126.329398 
L 336.608513 126.329398 
" style="fill:none;stroke:#d62728;stroke-linecap:square;stroke-width:1.5;"/>
   </g>
   <g id="patch_3">
    <path d="M 84.875 307.75 
L 84.875 13.5 
" style="fill:none;stroke:#000000;stroke-linecap:square;stroke-linejoin:miter;stroke-width:0.8;"/>
   </g>
   <g id="patch_4">
    <path d="M 348.595823 307.75 
L 348.595823 13.5 
" style="fill:none;stroke:#000000;stroke-linecap:square;stroke-linejoin:miter;stroke-width:0.8;"/>
   </g>
   <g id="patch_5">
    <path d="M 84.875 307.75 
L 348.595823 307.75 
" style="fill:none;stroke:#000000;stroke-linecap:square;stroke-linejoin:miter;stroke-width:0.8;"/>
   </g>
   <g id="patch_6">
    <path d="M 84.875 13.5 
L 348.595823 13.5 
" style="fill:none;stroke:#000000;stroke-linecap:square;stroke-linejoin:miter;stroke-width:0.8;"/>
   </g>
   <g id="legend_1">
    <g id="patch_7">
     <path d="M 91.875 80.2125 
L 173.198438 80.2125 
Q 175.198438 80.2125 175.198438 78.2125 
L 175.198438 20.5 
Q 175.198438 18.5 173.198438 18.5 
L 91.875 18.5 
Q 89.875 18.5 89.875 20.5 
L 89.875 78.2125 
Q 89.875 80.2125 91.875 80.2125 
z
" style="fill:#ffffff;opacity:0.8;stroke:#cccccc;stroke-linejoin:miter;"/>
    </g>
    <g id="line2d_16">
     <path d="M 93.875 26.598437 
L 113.875 26.598437 
" style="fill:none;stroke:#1f77b4;stroke-linecap:square;stroke-width:1.5;"/>
    </g>
    <g id="line2d_17"/>
    <g id="text_14">
     <!-- nearest -->
     <g transform="translate(121.875 30.098437)scale(0.1 -0.1)">
      <use xlink:href="#DejaVuSans-110"/>
      <use x="63.378906" xlink:href="#DejaVuSans-101"/>
      <use x="124.902344" xlink:href="#DejaVuSans-97"/>
      <use x="186.181641" xlink:href="#DejaVuSans-114"/>
      <use x="227.263672" xlink:href="#DejaVuSans-101"/>
      <use x="288.787109" xlink:href="#DejaVuSans-115"/>
      <use x="340.886719" xlink:href="#DejaVuSans-116"/>
     </g>
    </g>
    <g id="line2d_18">
     <path d="M 93.875 41.276563 
L 113.875 41.276563 
" style="fill:none;stroke:#ff7f0e;stroke-linecap:square;stroke-width:1.5;"/>
    </g>
    <g id="line2d_19"/>
    <g id="text_15">
     <!-- greedy -->
     <defs>
      <path d="M 45.40625 27.984375 
Q 45.40625 37.75 41.375 43.109375 
Q 37.359375 48.484375 30.078125 48.484375 
Q 22.859375 48.484375 18.828125 43.109375 
Q 14.796875 37.75 14.796875 27.984375 
Q 14.796875 18.265625 18.828125 12.890625 
Q 22.859375 7.515625 30.078125 7.515625 
Q 37.359375 7.515625 41.375 12.890625 
Q 45.40625 18.265625 45.40625 27.984375 
z
M 54.390625 6.78125 
Q 54.390625 -7.171875 48.1875 -13.984375 
Q 42 -20.796875 29.203125 -20.796875 
Q 24.46875 -20.796875 20.265625 -20.09375 
Q 16.0625 -19.390625 12.109375 -17.921875 
L 12.109375 -9.1875 
Q 16.0625 -11.328125 19.921875 -12.34375 
Q 23.78125 -13.375 27.78125 -13.375 
Q 36.625 -13.375 41.015625 -8.765625 
Q 45.40625 -4.15625 45.40625 5.171875 
L 45.40625 9.625 
Q 42.625 4.78125 38.28125 2.390625 
Q 33.9375 0 27.875 0 
Q 17.828125 0 11.671875 7.65625 
Q 5.515625 15.328125 5.515625 27.984375 
Q 5.515625 40.671875 11.671875 48.328125 
Q 17.828125 56 27.875 56 
Q 33.9375 56 38.28125 53.609375 
Q 42.625 51.21875 45.40625 46.390625 
L 45.40625 54.6875 
L 54.390625 54.6875 
z
" id="DejaVuSans-103"/>
      <path d="M 32.171875 -5.078125 
Q 28.375 -14.84375 24.75 -17.8125 
Q 21.140625 -20.796875 15.09375 -20.796875 
L 7.90625 -20.796875 
L 7.90625 -13.28125 
L 13.1875 -13.28125 
Q 16.890625 -13.28125 18.9375 -11.515625 
Q 21 -9.765625 23.484375 -3.21875 
L 25.09375 0.875 
L 2.984375 54.6875 
L 12.5 54.6875 
L 29.59375 11.921875 
L 46.6875 54.6875 
L 56.203125 54.6875 
z
" id="DejaVuSans-121"/>
     </defs>
     <g transform="translate(121.875 44.776563)scale(0.1 -0.1)">
      <use xlink:href="#DejaVuSans-103"/>
      <use x="63.476562" xlink:href="#DejaVuSans-114"/>
      <use x="104.558594" xlink:href="#DejaVuSans-101"/>
      <use x="166.082031" xlink:href="#DejaVuSans-101"/>
      <use x="227.605469" xlink:href="#DejaVuSans-100"/>
      <use x="291.082031" xlink:href="#DejaVuSans-121"/>
     </g>
    </g>
    <g id="line2d_20">
     <path d="M 93.875 55.954687 
L 113.875 55.954687 
" style="fill:none;stroke:#2ca02c;stroke-linecap:square;stroke-width:1.5;"/>
    </g>
    <g id="line2d_21"/>
    <g id="text_16">
     <!-- minPos -->
     <defs>
      <path d="M 19.671875 64.796875 
L 19.671875 37.40625 
L 32.078125 37.40625 
Q 38.96875 37.40625 42.71875 40.96875 
Q 46.484375 44.53125 46.484375 51.125 
Q 46.484375 57.671875 42.71875 61.234375 
Q 38.96875 64.796875 32.078125 64.796875 
z
M 9.8125 72.90625 
L 32.078125 72.90625 
Q 44.34375 72.90625 50.609375 67.359375 
Q 56.890625 61.8125 56.890625 51.125 
Q 56.890625 40.328125 50.609375 34.8125 
Q 44.34375 29.296875 32.078125 29.296875 
L 19.671875 29.296875 
L 19.671875 0 
L 9.8125 0 
z
" id="DejaVuSans-80"/>
     </defs>
     <g transform="translate(121.875 59.454687)scale(0.1 -0.1)">
      <use xlink:href="#DejaVuSans-109"/>
      <use x="97.412109" xlink:href="#DejaVuSans-105"/>
      <use x="125.195312" xlink:href="#DejaVuSans-110"/>
      <use x="188.574219" xlink:href="#DejaVuSans-80"/>
      <use x="248.830078" xlink:href="#DejaVuSans-111"/>
      <use x="310.011719" xlink:href="#DejaVuSans-115"/>
     </g>
    </g>
    <g id="line2d_22">
     <path d="M 93.875 70.632812 
L 113.875 70.632812 
" style="fill:none;stroke:#d62728;stroke-linecap:square;stroke-width:1.5;"/>
    </g>
    <g id="line2d_23"/>
    <g id="text_17">
     <!-- combined -->
     <defs>
      <path d="M 48.6875 27.296875 
Q 48.6875 37.203125 44.609375 42.84375 
Q 40.53125 48.484375 33.40625 48.484375 
Q 26.265625 48.484375 22.1875 42.84375 
Q 18.109375 37.203125 18.109375 27.296875 
Q 18.109375 17.390625 22.1875 11.75 
Q 26.265625 6.109375 33.40625 6.109375 
Q 40.53125 6.109375 44.609375 11.75 
Q 48.6875 17.390625 48.6875 27.296875 
z
M 18.109375 46.390625 
Q 20.953125 51.265625 25.265625 53.625 
Q 29.59375 56 35.59375 56 
Q 45.5625 56 51.78125 48.09375 
Q 58.015625 40.1875 58.015625 27.296875 
Q 58.015625 14.40625 51.78125 6.484375 
Q 45.5625 -1.421875 35.59375 -1.421875 
Q 29.59375 -1.421875 25.265625 0.953125 
Q 20.953125 3.328125 18.109375 8.203125 
L 18.109375 0 
L 9.078125 0 
L 9.078125 75.984375 
L 18.109375 75.984375 
z
" id="DejaVuSans-98"/>
     </defs>
     <g transform="translate(121.875 74.132812)scale(0.1 -0.1)">
      <use xlink:href="#DejaVuSans-99"/>
      <use x="54.980469" xlink:href="#DejaVuSans-111"/>
      <use x="116.162109" xlink:href="#DejaVuSans-109"/>
      <use x="213.574219" xlink:href="#DejaVuSans-98"/>
      <use x="277.050781" xlink:href="#DejaVuSans-105"/>
      <use x="304.833984" xlink:href="#DejaVuSans-110"/>
      <use x="368.212891" xlink:href="#DejaVuSans-101"/>
      <use x="429.736328" xlink:href="#DejaVuSans-100"/>
     </g>
    </g>
   </g>
  </g>
  <g id="axes_2">
   <g id="patch_8">
    <path d="M 433.270833 307.75 
L 696.991656 307.75 
L 696.991656 13.5 
L 433.270833 13.5 
z
" style="fill:#ffffff;"/>
   </g>
   <g id="matplotlib.axis_3">
    <g id="xtick_6">
     <g id="line2d_24">
      <g>
       <use style="stroke:#000000;stroke-width:0.8;" x="445.258143" xlink:href="#m309a1a1350" y="307.75"/>
      </g>
     </g>
     <g id="text_18">
      <!-- 0 -->
      <g transform="translate(442.076893 322.348437)scale(0.1 -0.1)">
       <use xlink:href="#DejaVuSans-48"/>
      </g>
     </g>
    </g>
    <g id="xtick_7">
     <g id="line2d_25">
      <g>
       <use style="stroke:#000000;stroke-width:0.8;" x="506.731529" xlink:href="#m309a1a1350" y="307.75"/>
      </g>
     </g>
     <g id="text_19">
      <!-- 10 -->
      <g transform="translate(500.369029 322.348437)scale(0.1 -0.1)">
       <use xlink:href="#DejaVuSans-49"/>
       <use x="63.623047" xlink:href="#DejaVuSans-48"/>
      </g>
     </g>
    </g>
    <g id="xtick_8">
     <g id="line2d_26">
      <g>
       <use style="stroke:#000000;stroke-width:0.8;" x="568.204914" xlink:href="#m309a1a1350" y="307.75"/>
      </g>
     </g>
     <g id="text_20">
      <!-- 20 -->
      <g transform="translate(561.842414 322.348437)scale(0.1 -0.1)">
       <use xlink:href="#DejaVuSans-50"/>
       <use x="63.623047" xlink:href="#DejaVuSans-48"/>
      </g>
     </g>
    </g>
    <g id="xtick_9">
     <g id="line2d_27">
      <g>
       <use style="stroke:#000000;stroke-width:0.8;" x="629.678299" xlink:href="#m309a1a1350" y="307.75"/>
      </g>
     </g>
     <g id="text_21">
      <!-- 30 -->
      <g transform="translate(623.315799 322.348437)scale(0.1 -0.1)">
       <use xlink:href="#DejaVuSans-51"/>
       <use x="63.623047" xlink:href="#DejaVuSans-48"/>
      </g>
     </g>
    </g>
    <g id="xtick_10">
     <g id="line2d_28">
      <g>
       <use style="stroke:#000000;stroke-width:0.8;" x="691.151684" xlink:href="#m309a1a1350" y="307.75"/>
      </g>
     </g>
     <g id="text_22">
      <!-- 40 -->
      <g transform="translate(684.789184 322.348437)scale(0.1 -0.1)">
       <use xlink:href="#DejaVuSans-52"/>
       <use x="63.623047" xlink:href="#DejaVuSans-48"/>
      </g>
     </g>
    </g>
    <g id="text_23">
     <!-- time in 5 second steps -->
     <g transform="translate(508.486713 336.026563)scale(0.1 -0.1)">
      <use xlink:href="#DejaVuSans-116"/>
      <use x="39.208984" xlink:href="#DejaVuSans-105"/>
      <use x="66.992188" xlink:href="#DejaVuSans-109"/>
      <use x="164.404297" xlink:href="#DejaVuSans-101"/>
      <use x="225.927734" xlink:href="#DejaVuSans-32"/>
      <use x="257.714844" xlink:href="#DejaVuSans-105"/>
      <use x="285.498047" xlink:href="#DejaVuSans-110"/>
      <use x="348.876953" xlink:href="#DejaVuSans-32"/>
      <use x="380.664062" xlink:href="#DejaVuSans-53"/>
      <use x="444.287109" xlink:href="#DejaVuSans-32"/>
      <use x="476.074219" xlink:href="#DejaVuSans-115"/>
      <use x="528.173828" xlink:href="#DejaVuSans-101"/>
      <use x="589.697266" xlink:href="#DejaVuSans-99"/>
      <use x="644.677734" xlink:href="#DejaVuSans-111"/>
      <use x="705.859375" xlink:href="#DejaVuSans-110"/>
      <use x="769.238281" xlink:href="#DejaVuSans-100"/>
      <use x="832.714844" xlink:href="#DejaVuSans-32"/>
      <use x="864.501953" xlink:href="#DejaVuSans-115"/>
      <use x="916.601562" xlink:href="#DejaVuSans-116"/>
      <use x="955.810547" xlink:href="#DejaVuSans-101"/>
      <use x="1017.333984" xlink:href="#DejaVuSans-112"/>
      <use x="1080.810547" xlink:href="#DejaVuSans-115"/>
     </g>
    </g>
   </g>
   <g id="matplotlib.axis_4">
    <g id="ytick_7">
     <g id="line2d_29">
      <g>
       <use style="stroke:#000000;stroke-width:0.8;" x="433.270833" xlink:href="#m5222c702a0" y="269.852911"/>
      </g>
     </g>
     <g id="text_24">
      <!-- 0.2 -->
      <defs>
       <path d="M 10.6875 12.40625 
L 21 12.40625 
L 21 0 
L 10.6875 0 
z
" id="DejaVuSans-46"/>
      </defs>
      <g transform="translate(410.367708 273.65213)scale(0.1 -0.1)">
       <use xlink:href="#DejaVuSans-48"/>
       <use x="63.623047" xlink:href="#DejaVuSans-46"/>
       <use x="95.410156" xlink:href="#DejaVuSans-50"/>
      </g>
     </g>
    </g>
    <g id="ytick_8">
     <g id="line2d_30">
      <g>
       <use style="stroke:#000000;stroke-width:0.8;" x="433.270833" xlink:href="#m5222c702a0" y="205.663536"/>
      </g>
     </g>
     <g id="text_25">
      <!-- 0.4 -->
      <g transform="translate(410.367708 209.462755)scale(0.1 -0.1)">
       <use xlink:href="#DejaVuSans-48"/>
       <use x="63.623047" xlink:href="#DejaVuSans-46"/>
       <use x="95.410156" xlink:href="#DejaVuSans-52"/>
      </g>
     </g>
    </g>
    <g id="ytick_9">
     <g id="line2d_31">
      <g>
       <use style="stroke:#000000;stroke-width:0.8;" x="433.270833" xlink:href="#m5222c702a0" y="141.474161"/>
      </g>
     </g>
     <g id="text_26">
      <!-- 0.6 -->
      <defs>
       <path d="M 33.015625 40.375 
Q 26.375 40.375 22.484375 35.828125 
Q 18.609375 31.296875 18.609375 23.390625 
Q 18.609375 15.53125 22.484375 10.953125 
Q 26.375 6.390625 33.015625 6.390625 
Q 39.65625 6.390625 43.53125 10.953125 
Q 47.40625 15.53125 47.40625 23.390625 
Q 47.40625 31.296875 43.53125 35.828125 
Q 39.65625 40.375 33.015625 40.375 
z
M 52.59375 71.296875 
L 52.59375 62.3125 
Q 48.875 64.0625 45.09375 64.984375 
Q 41.3125 65.921875 37.59375 65.921875 
Q 27.828125 65.921875 22.671875 59.328125 
Q 17.53125 52.734375 16.796875 39.40625 
Q 19.671875 43.65625 24.015625 45.921875 
Q 28.375 48.1875 33.59375 48.1875 
Q 44.578125 48.1875 50.953125 41.515625 
Q 57.328125 34.859375 57.328125 23.390625 
Q 57.328125 12.15625 50.6875 5.359375 
Q 44.046875 -1.421875 33.015625 -1.421875 
Q 20.359375 -1.421875 13.671875 8.265625 
Q 6.984375 17.96875 6.984375 36.375 
Q 6.984375 53.65625 15.1875 63.9375 
Q 23.390625 74.21875 37.203125 74.21875 
Q 40.921875 74.21875 44.703125 73.484375 
Q 48.484375 72.75 52.59375 71.296875 
z
" id="DejaVuSans-54"/>
      </defs>
      <g transform="translate(410.367708 145.27338)scale(0.1 -0.1)">
       <use xlink:href="#DejaVuSans-48"/>
       <use x="63.623047" xlink:href="#DejaVuSans-46"/>
       <use x="95.410156" xlink:href="#DejaVuSans-54"/>
      </g>
     </g>
    </g>
    <g id="ytick_10">
     <g id="line2d_32">
      <g>
       <use style="stroke:#000000;stroke-width:0.8;" x="433.270833" xlink:href="#m5222c702a0" y="77.284786"/>
      </g>
     </g>
     <g id="text_27">
      <!-- 0.8 -->
      <defs>
       <path d="M 31.78125 34.625 
Q 24.75 34.625 20.71875 30.859375 
Q 16.703125 27.09375 16.703125 20.515625 
Q 16.703125 13.921875 20.71875 10.15625 
Q 24.75 6.390625 31.78125 6.390625 
Q 38.8125 6.390625 42.859375 10.171875 
Q 46.921875 13.96875 46.921875 20.515625 
Q 46.921875 27.09375 42.890625 30.859375 
Q 38.875 34.625 31.78125 34.625 
z
M 21.921875 38.8125 
Q 15.578125 40.375 12.03125 44.71875 
Q 8.5 49.078125 8.5 55.328125 
Q 8.5 64.0625 14.71875 69.140625 
Q 20.953125 74.21875 31.78125 74.21875 
Q 42.671875 74.21875 48.875 69.140625 
Q 55.078125 64.0625 55.078125 55.328125 
Q 55.078125 49.078125 51.53125 44.71875 
Q 48 40.375 41.703125 38.8125 
Q 48.828125 37.15625 52.796875 32.3125 
Q 56.78125 27.484375 56.78125 20.515625 
Q 56.78125 9.90625 50.3125 4.234375 
Q 43.84375 -1.421875 31.78125 -1.421875 
Q 19.734375 -1.421875 13.25 4.234375 
Q 6.78125 9.90625 6.78125 20.515625 
Q 6.78125 27.484375 10.78125 32.3125 
Q 14.796875 37.15625 21.921875 38.8125 
z
M 18.3125 54.390625 
Q 18.3125 48.734375 21.84375 45.5625 
Q 25.390625 42.390625 31.78125 42.390625 
Q 38.140625 42.390625 41.71875 45.5625 
Q 45.3125 48.734375 45.3125 54.390625 
Q 45.3125 60.0625 41.71875 63.234375 
Q 38.140625 66.40625 31.78125 66.40625 
Q 25.390625 66.40625 21.84375 63.234375 
Q 18.3125 60.0625 18.3125 54.390625 
z
" id="DejaVuSans-56"/>
      </defs>
      <g transform="translate(410.367708 81.084005)scale(0.1 -0.1)">
       <use xlink:href="#DejaVuSans-48"/>
       <use x="63.623047" xlink:href="#DejaVuSans-46"/>
       <use x="95.410156" xlink:href="#DejaVuSans-56"/>
      </g>
     </g>
    </g>
    <g id="text_28">
     <!-- mean coverage over time -->
     <g transform="translate(404.288021 225.233594)rotate(-90)scale(0.1 -0.1)">
      <use xlink:href="#DejaVuSans-109"/>
      <use x="97.412109" xlink:href="#DejaVuSans-101"/>
      <use x="158.935547" xlink:href="#DejaVuSans-97"/>
      <use x="220.214844" xlink:href="#DejaVuSans-110"/>
      <use x="283.59375" xlink:href="#DejaVuSans-32"/>
      <use x="315.380859" xlink:href="#DejaVuSans-99"/>
      <use x="370.361328" xlink:href="#DejaVuSans-111"/>
      <use x="431.542969" xlink:href="#DejaVuSans-118"/>
      <use x="490.722656" xlink:href="#DejaVuSans-101"/>
      <use x="552.246094" xlink:href="#DejaVuSans-114"/>
      <use x="593.359375" xlink:href="#DejaVuSans-97"/>
      <use x="654.638672" xlink:href="#DejaVuSans-103"/>
      <use x="718.115234" xlink:href="#DejaVuSans-101"/>
      <use x="779.638672" xlink:href="#DejaVuSans-32"/>
      <use x="811.425781" xlink:href="#DejaVuSans-111"/>
      <use x="872.607422" xlink:href="#DejaVuSans-118"/>
      <use x="931.787109" xlink:href="#DejaVuSans-101"/>
      <use x="993.310547" xlink:href="#DejaVuSans-114"/>
      <use x="1034.423828" xlink:href="#DejaVuSans-32"/>
      <use x="1066.210938" xlink:href="#DejaVuSans-116"/>
      <use x="1105.419922" xlink:href="#DejaVuSans-105"/>
      <use x="1133.203125" xlink:href="#DejaVuSans-109"/>
      <use x="1230.615234" xlink:href="#DejaVuSans-101"/>
     </g>
    </g>
   </g>
   <g id="line2d_33">
    <path clip-path="url(#p6597f93f0f)" d="M 445.258143 294.348125 
L 451.405482 287.042504 
L 457.552821 247.004705 
L 463.700159 189.942983 
L 469.847498 151.26373 
L 475.994836 119.981595 
L 482.142175 109.268476 
L 488.289513 99.42093 
L 494.436852 94.000226 
L 500.58419 86.957008 
L 506.731529 83.157254 
L 512.878867 80.963402 
L 519.026206 78.755895 
L 525.173544 76.310686 
L 531.320883 72.504147 
L 537.468221 68.298481 
L 543.61556 65.318986 
L 549.762898 57.878815 
L 555.910237 53.997043 
L 562.057575 51.225853 
L 568.204914 48.192259 
L 574.352252 43.791509 
L 580.499591 41.298029 
L 586.64693 40.281641 
L 592.794268 38.964843 
L 598.941607 36.80726 
L 605.088945 34.362224 
L 611.236284 32.060437 
L 617.383622 31.329849 
L 623.530961 30.78817 
L 629.678299 30.819567 
L 635.825638 30.835484 
L 641.972976 30.372343 
L 648.120315 29.530775 
L 654.267653 29.150869 
L 660.414992 29.275243 
L 666.56233 29.313425 
L 672.709669 29.282549 
L 678.857007 29.254195 
L 685.004346 29.265589 
" style="fill:none;stroke:#1f77b4;stroke-linecap:square;stroke-width:1.5;"/>
   </g>
   <g id="line2d_34">
    <path clip-path="url(#p6597f93f0f)" d="M 445.258143 294.357332 
L 451.405482 287.675133 
L 457.552821 260.208148 
L 463.700159 242.997801 
L 469.847498 226.758465 
L 475.994836 205.754129 
L 482.142175 186.280748 
L 488.289513 164.465831 
L 494.436852 143.981555 
L 500.58419 127.482786 
L 506.731529 120.196734 
L 512.878867 109.707053 
L 519.026206 102.786742 
L 525.173544 96.510617 
L 531.320883 91.834331 
L 537.468221 87.391683 
L 543.61556 83.53291 
L 549.762898 79.167795 
L 555.910237 73.789771 
L 562.057575 67.573062 
L 568.204914 63.986098 
L 574.352252 61.224698 
L 580.499591 59.847912 
L 586.64693 58.176207 
L 592.794268 56.369641 
L 598.941607 53.973908 
L 605.088945 52.055518 
L 611.236284 50.236651 
L 617.383622 48.988911 
L 623.530961 47.971231 
L 629.678299 46.638281 
L 635.825638 45.588246 
L 641.972976 45.319867 
L 648.120315 44.494452 
L 654.267653 43.865997 
L 660.414992 42.980345 
L 666.56233 41.434405 
L 672.709669 40.246379 
L 678.857007 39.751145 
L 685.004346 39.32964 
" style="fill:none;stroke:#ff7f0e;stroke-linecap:square;stroke-width:1.5;"/>
   </g>
   <g id="line2d_35">
    <path clip-path="url(#p6597f93f0f)" d="M 445.258143 294.375 
L 451.405482 288.305204 
L 457.552821 246.58508 
L 463.700159 193.369905 
L 469.847498 151.314929 
L 475.994836 119.871746 
L 482.142175 108.647244 
L 488.289513 97.559061 
L 494.436852 90.63668 
L 500.58419 82.521236 
L 506.731529 74.418259 
L 512.878867 65.909226 
L 519.026206 60.694798 
L 525.173544 56.855557 
L 531.320883 54.230136 
L 537.468221 48.848484 
L 543.61556 45.674078 
L 549.762898 41.950456 
L 555.910237 38.353642 
L 562.057575 35.823662 
L 568.204914 34.409974 
L 574.352252 33.270604 
L 580.499591 32.06148 
L 586.64693 31.239337 
L 592.794268 30.645067 
L 598.941607 29.96046 
L 605.088945 29.623403 
L 611.236284 28.601044 
L 617.383622 27.867034 
L 623.530961 27.018624 
L 629.678299 26.875 
L 635.825638 26.875 
L 641.972976 26.875 
L 648.120315 26.875 
L 654.267653 26.875 
L 660.414992 26.875 
L 666.56233 26.875 
L 672.709669 26.875 
L 678.857007 26.875 
L 685.004346 26.875 
" style="fill:none;stroke:#2ca02c;stroke-linecap:square;stroke-width:1.5;"/>
   </g>
   <g id="line2d_36">
    <path clip-path="url(#p6597f93f0f)" d="M 445.258143 294.314987 
L 451.405482 290.128521 
L 457.552821 245.987556 
L 463.700159 192.202762 
L 469.847498 144.910026 
L 475.994836 115.902087 
L 482.142175 95.501781 
L 488.289513 86.828199 
L 494.436852 78.884161 
L 500.58419 72.978334 
L 506.731529 65.713091 
L 512.878867 62.969667 
L 519.026206 59.264345 
L 525.173544 56.625291 
L 531.320883 53.341688 
L 537.468221 48.903952 
L 543.61556 43.718733 
L 549.762898 41.161217 
L 555.910237 39.442052 
L 562.057575 37.218585 
L 568.204914 34.984094 
L 574.352252 33.16656 
L 580.499591 31.200039 
L 586.64693 30.105135 
L 592.794268 29.596724 
L 598.941607 29.076701 
L 605.088945 28.845196 
L 611.236284 28.828954 
L 617.383622 28.827584 
L 623.530961 28.827649 
L 629.678299 28.832998 
L 635.825638 28.85198 
L 641.972976 28.873115 
L 648.120315 28.90136 
L 654.267653 28.915124 
L 660.414992 28.955306 
L 666.56233 28.937955 
L 672.709669 28.941217 
L 678.857007 28.950088 
L 685.004346 28.95361 
" style="fill:none;stroke:#d62728;stroke-linecap:square;stroke-width:1.5;"/>
   </g>
   <g id="patch_9">
    <path d="M 433.270833 307.75 
L 433.270833 13.5 
" style="fill:none;stroke:#000000;stroke-linecap:square;stroke-linejoin:miter;stroke-width:0.8;"/>
   </g>
   <g id="patch_10">
    <path d="M 696.991656 307.75 
L 696.991656 13.5 
" style="fill:none;stroke:#000000;stroke-linecap:square;stroke-linejoin:miter;stroke-width:0.8;"/>
   </g>
   <g id="patch_11">
    <path d="M 433.270833 307.75 
L 696.991656 307.75 
" style="fill:none;stroke:#000000;stroke-linecap:square;stroke-linejoin:miter;stroke-width:0.8;"/>
   </g>
   <g id="patch_12">
    <path d="M 433.270833 13.5 
L 696.991656 13.5 
" style="fill:none;stroke:#000000;stroke-linecap:square;stroke-linejoin:miter;stroke-width:0.8;"/>
   </g>
   <g id="legend_2">
    <g id="patch_13">
     <path d="M 608.668219 302.75 
L 689.991656 302.75 
Q 691.991656 302.75 691.991656 300.75 
L 691.991656 243.0375 
Q 691.991656 241.0375 689.991656 241.0375 
L 608.668219 241.0375 
Q 606.668219 241.0375 606.668219 243.0375 
L 606.668219 300.75 
Q 606.668219 302.75 608.668219 302.75 
z
" style="fill:#ffffff;opacity:0.8;stroke:#cccccc;stroke-linejoin:miter;"/>
    </g>
    <g id="line2d_37">
     <path d="M 610.668219 249.135937 
L 630.668219 249.135937 
" style="fill:none;stroke:#1f77b4;stroke-linecap:square;stroke-width:1.5;"/>
    </g>
    <g id="line2d_38"/>
    <g id="text_29">
     <!-- nearest -->
     <g transform="translate(638.668219 252.635937)scale(0.1 -0.1)">
      <use xlink:href="#DejaVuSans-110"/>
      <use x="63.378906" xlink:href="#DejaVuSans-101"/>
      <use x="124.902344" xlink:href="#DejaVuSans-97"/>
      <use x="186.181641" xlink:href="#DejaVuSans-114"/>
      <use x="227.263672" xlink:href="#DejaVuSans-101"/>
      <use x="288.787109" xlink:href="#DejaVuSans-115"/>
      <use x="340.886719" xlink:href="#DejaVuSans-116"/>
     </g>
    </g>
    <g id="line2d_39">
     <path d="M 610.668219 263.814062 
L 630.668219 263.814062 
" style="fill:none;stroke:#ff7f0e;stroke-linecap:square;stroke-width:1.5;"/>
    </g>
    <g id="line2d_40"/>
    <g id="text_30">
     <!-- greedy -->
     <g transform="translate(638.668219 267.314062)scale(0.1 -0.1)">
      <use xlink:href="#DejaVuSans-103"/>
      <use x="63.476562" xlink:href="#DejaVuSans-114"/>
      <use x="104.558594" xlink:href="#DejaVuSans-101"/>
      <use x="166.082031" xlink:href="#DejaVuSans-101"/>
      <use x="227.605469" xlink:href="#DejaVuSans-100"/>
      <use x="291.082031" xlink:href="#DejaVuSans-121"/>
     </g>
    </g>
    <g id="line2d_41">
     <path d="M 610.668219 278.492188 
L 630.668219 278.492188 
" style="fill:none;stroke:#2ca02c;stroke-linecap:square;stroke-width:1.5;"/>
    </g>
    <g id="line2d_42"/>
    <g id="text_31">
     <!-- minPos -->
     <g transform="translate(638.668219 281.992188)scale(0.1 -0.1)">
      <use xlink:href="#DejaVuSans-109"/>
      <use x="97.412109" xlink:href="#DejaVuSans-105"/>
      <use x="125.195312" xlink:href="#DejaVuSans-110"/>
      <use x="188.574219" xlink:href="#DejaVuSans-80"/>
      <use x="248.830078" xlink:href="#DejaVuSans-111"/>
      <use x="310.011719" xlink:href="#DejaVuSans-115"/>
     </g>
    </g>
    <g id="line2d_43">
     <path d="M 610.668219 293.170312 
L 630.668219 293.170312 
" style="fill:none;stroke:#d62728;stroke-linecap:square;stroke-width:1.5;"/>
    </g>
    <g id="line2d_44"/>
    <g id="text_32">
     <!-- combined -->
     <g transform="translate(638.668219 296.670312)scale(0.1 -0.1)">
      <use xlink:href="#DejaVuSans-99"/>
      <use x="54.980469" xlink:href="#DejaVuSans-111"/>
      <use x="116.162109" xlink:href="#DejaVuSans-109"/>
      <use x="213.574219" xlink:href="#DejaVuSans-98"/>
      <use x="277.050781" xlink:href="#DejaVuSans-105"/>
      <use x="304.833984" xlink:href="#DejaVuSans-110"/>
      <use x="368.212891" xlink:href="#DejaVuSans-101"/>
      <use x="429.736328" xlink:href="#DejaVuSans-100"/>
     </g>
    </g>
   </g>
  </g>
 </g>
 <defs>
  <clipPath id="peaa3cafdf4">
   <rect height="294.25" width="263.720823" x="84.875" y="13.5"/>
  </clipPath>
  <clipPath id="p6597f93f0f">
   <rect height="294.25" width="263.720823" x="433.270833" y="13.5"/>
  </clipPath>
 </defs>
</svg>
