<?xml version="1.0" encoding="utf-8" standalone="no"?>
<!DOCTYPE svg PUBLIC "-//W3C//DTD SVG 1.1//EN"
  "http://www.w3.org/Graphics/SVG/1.1/DTD/svg11.dtd">
<!-- Created with matplotlib (https://matplotlib.org/) -->
<svg height="360pt" version="1.1" viewBox="0 0 720 360" width="720pt" xmlns="http://www.w3.org/2000/svg" xmlns:xlink="http://www.w3.org/1999/xlink">
 <defs>
  <style type="text/css">
*{stroke-linecap:butt;stroke-linejoin:round;}
  </style>
 </defs>
 <g id="figure_1">
  <g id="patch_1">
   <path d="M 0 360 
L 720 360 
L 720 0 
L 0 0 
z
" style="fill:#ffffff;"/>
  </g>
  <g id="axes_1">
   <g id="patch_2">
    <path d="M 86.385417 307.75 
L 354.359375 307.75 
L 354.359375 13.5 
L 86.385417 13.5 
z
" style="fill:#ffffff;"/>
   </g>
   <g id="matplotlib.axis_1">
    <g id="xtick_1">
     <g id="line2d_1">
      <defs>
       <path d="M 0 0 
L 0 3.5 
" id="mfe9ea6004c" style="stroke:#000000;stroke-width:0.8;"/>
      </defs>
      <g>
       <use style="stroke:#000000;stroke-width:0.8;" x="98.566051" xlink:href="#mfe9ea6004c" y="307.75"/>
      </g>
     </g>
     <g id="text_1">
      <!-- 0 -->
      <defs>
       <path d="M 31.78125 66.40625 
Q 24.171875 66.40625 20.328125 58.90625 
Q 16.5 51.421875 16.5 36.375 
Q 16.5 21.390625 20.328125 13.890625 
Q 24.171875 6.390625 31.78125 6.390625 
Q 39.453125 6.390625 43.28125 13.890625 
Q 47.125 21.390625 47.125 36.375 
Q 47.125 51.421875 43.28125 58.90625 
Q 39.453125 66.40625 31.78125 66.40625 
z
M 31.78125 74.21875 
Q 44.046875 74.21875 50.515625 64.515625 
Q 56.984375 54.828125 56.984375 36.375 
Q 56.984375 17.96875 50.515625 8.265625 
Q 44.046875 -1.421875 31.78125 -1.421875 
Q 19.53125 -1.421875 13.0625 8.265625 
Q 6.59375 17.96875 6.59375 36.375 
Q 6.59375 54.828125 13.0625 64.515625 
Q 19.53125 74.21875 31.78125 74.21875 
z
" id="DejaVuSans-48"/>
      </defs>
      <g transform="translate(95.384801 322.348437)scale(0.1 -0.1)">
       <use xlink:href="#DejaVuSans-48"/>
      </g>
     </g>
    </g>
    <g id="xtick_2">
     <g id="line2d_2">
      <g>
       <use style="stroke:#000000;stroke-width:0.8;" x="148.282927" xlink:href="#mfe9ea6004c" y="307.75"/>
      </g>
     </g>
     <g id="text_2">
      <!-- 10 -->
      <defs>
       <path d="M 12.40625 8.296875 
L 28.515625 8.296875 
L 28.515625 63.921875 
L 10.984375 60.40625 
L 10.984375 69.390625 
L 28.421875 72.90625 
L 38.28125 72.90625 
L 38.28125 8.296875 
L 54.390625 8.296875 
L 54.390625 0 
L 12.40625 0 
z
" id="DejaVuSans-49"/>
      </defs>
      <g transform="translate(141.920427 322.348437)scale(0.1 -0.1)">
       <use xlink:href="#DejaVuSans-49"/>
       <use x="63.623047" xlink:href="#DejaVuSans-48"/>
      </g>
     </g>
    </g>
    <g id="xtick_3">
     <g id="line2d_3">
      <g>
       <use style="stroke:#000000;stroke-width:0.8;" x="197.999802" xlink:href="#mfe9ea6004c" y="307.75"/>
      </g>
     </g>
     <g id="text_3">
      <!-- 20 -->
      <defs>
       <path d="M 19.1875 8.296875 
L 53.609375 8.296875 
L 53.609375 0 
L 7.328125 0 
L 7.328125 8.296875 
Q 12.9375 14.109375 22.625 23.890625 
Q 32.328125 33.6875 34.8125 36.53125 
Q 39.546875 41.84375 41.421875 45.53125 
Q 43.3125 49.21875 43.3125 52.78125 
Q 43.3125 58.59375 39.234375 62.25 
Q 35.15625 65.921875 28.609375 65.921875 
Q 23.96875 65.921875 18.8125 64.3125 
Q 13.671875 62.703125 7.8125 59.421875 
L 7.8125 69.390625 
Q 13.765625 71.78125 18.9375 73 
Q 24.125 74.21875 28.421875 74.21875 
Q 39.75 74.21875 46.484375 68.546875 
Q 53.21875 62.890625 53.21875 53.421875 
Q 53.21875 48.921875 51.53125 44.890625 
Q 49.859375 40.875 45.40625 35.40625 
Q 44.1875 33.984375 37.640625 27.21875 
Q 31.109375 20.453125 19.1875 8.296875 
z
" id="DejaVuSans-50"/>
      </defs>
      <g transform="translate(191.637302 322.348437)scale(0.1 -0.1)">
       <use xlink:href="#DejaVuSans-50"/>
       <use x="63.623047" xlink:href="#DejaVuSans-48"/>
      </g>
     </g>
    </g>
    <g id="xtick_4">
     <g id="line2d_4">
      <g>
       <use style="stroke:#000000;stroke-width:0.8;" x="247.716677" xlink:href="#mfe9ea6004c" y="307.75"/>
      </g>
     </g>
     <g id="text_4">
      <!-- 30 -->
      <defs>
       <path d="M 40.578125 39.3125 
Q 47.65625 37.796875 51.625 33 
Q 55.609375 28.21875 55.609375 21.1875 
Q 55.609375 10.40625 48.1875 4.484375 
Q 40.765625 -1.421875 27.09375 -1.421875 
Q 22.515625 -1.421875 17.65625 -0.515625 
Q 12.796875 0.390625 7.625 2.203125 
L 7.625 11.71875 
Q 11.71875 9.328125 16.59375 8.109375 
Q 21.484375 6.890625 26.8125 6.890625 
Q 36.078125 6.890625 40.9375 10.546875 
Q 45.796875 14.203125 45.796875 21.1875 
Q 45.796875 27.640625 41.28125 31.265625 
Q 36.765625 34.90625 28.71875 34.90625 
L 20.21875 34.90625 
L 20.21875 43.015625 
L 29.109375 43.015625 
Q 36.375 43.015625 40.234375 45.921875 
Q 44.09375 48.828125 44.09375 54.296875 
Q 44.09375 59.90625 40.109375 62.90625 
Q 36.140625 65.921875 28.71875 65.921875 
Q 24.65625 65.921875 20.015625 65.03125 
Q 15.375 64.15625 9.8125 62.3125 
L 9.8125 71.09375 
Q 15.4375 72.65625 20.34375 73.4375 
Q 25.25 74.21875 29.59375 74.21875 
Q 40.828125 74.21875 47.359375 69.109375 
Q 53.90625 64.015625 53.90625 55.328125 
Q 53.90625 49.265625 50.4375 45.09375 
Q 46.96875 40.921875 40.578125 39.3125 
z
" id="DejaVuSans-51"/>
      </defs>
      <g transform="translate(241.354177 322.348437)scale(0.1 -0.1)">
       <use xlink:href="#DejaVuSans-51"/>
       <use x="63.623047" xlink:href="#DejaVuSans-48"/>
      </g>
     </g>
    </g>
    <g id="xtick_5">
     <g id="line2d_5">
      <g>
       <use style="stroke:#000000;stroke-width:0.8;" x="297.433553" xlink:href="#mfe9ea6004c" y="307.75"/>
      </g>
     </g>
     <g id="text_5">
      <!-- 40 -->
      <defs>
       <path d="M 37.796875 64.3125 
L 12.890625 25.390625 
L 37.796875 25.390625 
z
M 35.203125 72.90625 
L 47.609375 72.90625 
L 47.609375 25.390625 
L 58.015625 25.390625 
L 58.015625 17.1875 
L 47.609375 17.1875 
L 47.609375 0 
L 37.796875 0 
L 37.796875 17.1875 
L 4.890625 17.1875 
L 4.890625 26.703125 
z
" id="DejaVuSans-52"/>
      </defs>
      <g transform="translate(291.071053 322.348437)scale(0.1 -0.1)">
       <use xlink:href="#DejaVuSans-52"/>
       <use x="63.623047" xlink:href="#DejaVuSans-48"/>
      </g>
     </g>
    </g>
    <g id="xtick_6">
     <g id="line2d_6">
      <g>
       <use style="stroke:#000000;stroke-width:0.8;" x="347.150428" xlink:href="#mfe9ea6004c" y="307.75"/>
      </g>
     </g>
     <g id="text_6">
      <!-- 50 -->
      <defs>
       <path d="M 10.796875 72.90625 
L 49.515625 72.90625 
L 49.515625 64.59375 
L 19.828125 64.59375 
L 19.828125 46.734375 
Q 21.96875 47.46875 24.109375 47.828125 
Q 26.265625 48.1875 28.421875 48.1875 
Q 40.625 48.1875 47.75 41.5 
Q 54.890625 34.8125 54.890625 23.390625 
Q 54.890625 11.625 47.5625 5.09375 
Q 40.234375 -1.421875 26.90625 -1.421875 
Q 22.3125 -1.421875 17.546875 -0.640625 
Q 12.796875 0.140625 7.71875 1.703125 
L 7.71875 11.625 
Q 12.109375 9.234375 16.796875 8.0625 
Q 21.484375 6.890625 26.703125 6.890625 
Q 35.15625 6.890625 40.078125 11.328125 
Q 45.015625 15.765625 45.015625 23.390625 
Q 45.015625 31 40.078125 35.4375 
Q 35.15625 39.890625 26.703125 39.890625 
Q 22.75 39.890625 18.8125 39.015625 
Q 14.890625 38.140625 10.796875 36.28125 
z
" id="DejaVuSans-53"/>
      </defs>
      <g transform="translate(340.787928 322.348437)scale(0.1 -0.1)">
       <use xlink:href="#DejaVuSans-53"/>
       <use x="63.623047" xlink:href="#DejaVuSans-48"/>
      </g>
     </g>
    </g>
    <g id="text_7">
     <!-- time in 5 second steps -->
     <defs>
      <path d="M 18.3125 70.21875 
L 18.3125 54.6875 
L 36.8125 54.6875 
L 36.8125 47.703125 
L 18.3125 47.703125 
L 18.3125 18.015625 
Q 18.3125 11.328125 20.140625 9.421875 
Q 21.96875 7.515625 27.59375 7.515625 
L 36.8125 7.515625 
L 36.8125 0 
L 27.59375 0 
Q 17.1875 0 13.234375 3.875 
Q 9.28125 7.765625 9.28125 18.015625 
L 9.28125 47.703125 
L 2.6875 47.703125 
L 2.6875 54.6875 
L 9.28125 54.6875 
L 9.28125 70.21875 
z
" id="DejaVuSans-116"/>
      <path d="M 9.421875 54.6875 
L 18.40625 54.6875 
L 18.40625 0 
L 9.421875 0 
z
M 9.421875 75.984375 
L 18.40625 75.984375 
L 18.40625 64.59375 
L 9.421875 64.59375 
z
" id="DejaVuSans-105"/>
      <path d="M 52 44.1875 
Q 55.375 50.25 60.0625 53.125 
Q 64.75 56 71.09375 56 
Q 79.640625 56 84.28125 50.015625 
Q 88.921875 44.046875 88.921875 33.015625 
L 88.921875 0 
L 79.890625 0 
L 79.890625 32.71875 
Q 79.890625 40.578125 77.09375 44.375 
Q 74.3125 48.1875 68.609375 48.1875 
Q 61.625 48.1875 57.5625 43.546875 
Q 53.515625 38.921875 53.515625 30.90625 
L 53.515625 0 
L 44.484375 0 
L 44.484375 32.71875 
Q 44.484375 40.625 41.703125 44.40625 
Q 38.921875 48.1875 33.109375 48.1875 
Q 26.21875 48.1875 22.15625 43.53125 
Q 18.109375 38.875 18.109375 30.90625 
L 18.109375 0 
L 9.078125 0 
L 9.078125 54.6875 
L 18.109375 54.6875 
L 18.109375 46.1875 
Q 21.1875 51.21875 25.484375 53.609375 
Q 29.78125 56 35.6875 56 
Q 41.65625 56 45.828125 52.96875 
Q 50 49.953125 52 44.1875 
z
" id="DejaVuSans-109"/>
      <path d="M 56.203125 29.59375 
L 56.203125 25.203125 
L 14.890625 25.203125 
Q 15.484375 15.921875 20.484375 11.0625 
Q 25.484375 6.203125 34.421875 6.203125 
Q 39.59375 6.203125 44.453125 7.46875 
Q 49.3125 8.734375 54.109375 11.28125 
L 54.109375 2.78125 
Q 49.265625 0.734375 44.1875 -0.34375 
Q 39.109375 -1.421875 33.890625 -1.421875 
Q 20.796875 -1.421875 13.15625 6.1875 
Q 5.515625 13.8125 5.515625 26.8125 
Q 5.515625 40.234375 12.765625 48.109375 
Q 20.015625 56 32.328125 56 
Q 43.359375 56 49.78125 48.890625 
Q 56.203125 41.796875 56.203125 29.59375 
z
M 47.21875 32.234375 
Q 47.125 39.59375 43.09375 43.984375 
Q 39.0625 48.390625 32.421875 48.390625 
Q 24.90625 48.390625 20.390625 44.140625 
Q 15.875 39.890625 15.1875 32.171875 
z
" id="DejaVuSans-101"/>
      <path id="DejaVuSans-32"/>
      <path d="M 54.890625 33.015625 
L 54.890625 0 
L 45.90625 0 
L 45.90625 32.71875 
Q 45.90625 40.484375 42.875 44.328125 
Q 39.84375 48.1875 33.796875 48.1875 
Q 26.515625 48.1875 22.3125 43.546875 
Q 18.109375 38.921875 18.109375 30.90625 
L 18.109375 0 
L 9.078125 0 
L 9.078125 54.6875 
L 18.109375 54.6875 
L 18.109375 46.1875 
Q 21.34375 51.125 25.703125 53.5625 
Q 30.078125 56 35.796875 56 
Q 45.21875 56 50.046875 50.171875 
Q 54.890625 44.34375 54.890625 33.015625 
z
" id="DejaVuSans-110"/>
      <path d="M 44.28125 53.078125 
L 44.28125 44.578125 
Q 40.484375 46.53125 36.375 47.5 
Q 32.28125 48.484375 27.875 48.484375 
Q 21.1875 48.484375 17.84375 46.4375 
Q 14.5 44.390625 14.5 40.28125 
Q 14.5 37.15625 16.890625 35.375 
Q 19.28125 33.59375 26.515625 31.984375 
L 29.59375 31.296875 
Q 39.15625 29.25 43.1875 25.515625 
Q 47.21875 21.78125 47.21875 15.09375 
Q 47.21875 7.46875 41.1875 3.015625 
Q 35.15625 -1.421875 24.609375 -1.421875 
Q 20.21875 -1.421875 15.453125 -0.5625 
Q 10.6875 0.296875 5.421875 2 
L 5.421875 11.28125 
Q 10.40625 8.6875 15.234375 7.390625 
Q 20.0625 6.109375 24.8125 6.109375 
Q 31.15625 6.109375 34.5625 8.28125 
Q 37.984375 10.453125 37.984375 14.40625 
Q 37.984375 18.0625 35.515625 20.015625 
Q 33.0625 21.96875 24.703125 23.78125 
L 21.578125 24.515625 
Q 13.234375 26.265625 9.515625 29.90625 
Q 5.8125 33.546875 5.8125 39.890625 
Q 5.8125 47.609375 11.28125 51.796875 
Q 16.75 56 26.8125 56 
Q 31.78125 56 36.171875 55.265625 
Q 40.578125 54.546875 44.28125 53.078125 
z
" id="DejaVuSans-115"/>
      <path d="M 48.78125 52.59375 
L 48.78125 44.1875 
Q 44.96875 46.296875 41.140625 47.34375 
Q 37.3125 48.390625 33.40625 48.390625 
Q 24.65625 48.390625 19.8125 42.84375 
Q 14.984375 37.3125 14.984375 27.296875 
Q 14.984375 17.28125 19.8125 11.734375 
Q 24.65625 6.203125 33.40625 6.203125 
Q 37.3125 6.203125 41.140625 7.25 
Q 44.96875 8.296875 48.78125 10.40625 
L 48.78125 2.09375 
Q 45.015625 0.34375 40.984375 -0.53125 
Q 36.96875 -1.421875 32.421875 -1.421875 
Q 20.0625 -1.421875 12.78125 6.34375 
Q 5.515625 14.109375 5.515625 27.296875 
Q 5.515625 40.671875 12.859375 48.328125 
Q 20.21875 56 33.015625 56 
Q 37.15625 56 41.109375 55.140625 
Q 45.0625 54.296875 48.78125 52.59375 
z
" id="DejaVuSans-99"/>
      <path d="M 30.609375 48.390625 
Q 23.390625 48.390625 19.1875 42.75 
Q 14.984375 37.109375 14.984375 27.296875 
Q 14.984375 17.484375 19.15625 11.84375 
Q 23.34375 6.203125 30.609375 6.203125 
Q 37.796875 6.203125 41.984375 11.859375 
Q 46.1875 17.53125 46.1875 27.296875 
Q 46.1875 37.015625 41.984375 42.703125 
Q 37.796875 48.390625 30.609375 48.390625 
z
M 30.609375 56 
Q 42.328125 56 49.015625 48.375 
Q 55.71875 40.765625 55.71875 27.296875 
Q 55.71875 13.875 49.015625 6.21875 
Q 42.328125 -1.421875 30.609375 -1.421875 
Q 18.84375 -1.421875 12.171875 6.21875 
Q 5.515625 13.875 5.515625 27.296875 
Q 5.515625 40.765625 12.171875 48.375 
Q 18.84375 56 30.609375 56 
z
" id="DejaVuSans-111"/>
      <path d="M 45.40625 46.390625 
L 45.40625 75.984375 
L 54.390625 75.984375 
L 54.390625 0 
L 45.40625 0 
L 45.40625 8.203125 
Q 42.578125 3.328125 38.25 0.953125 
Q 33.9375 -1.421875 27.875 -1.421875 
Q 17.96875 -1.421875 11.734375 6.484375 
Q 5.515625 14.40625 5.515625 27.296875 
Q 5.515625 40.1875 11.734375 48.09375 
Q 17.96875 56 27.875 56 
Q 33.9375 56 38.25 53.625 
Q 42.578125 51.265625 45.40625 46.390625 
z
M 14.796875 27.296875 
Q 14.796875 17.390625 18.875 11.75 
Q 22.953125 6.109375 30.078125 6.109375 
Q 37.203125 6.109375 41.296875 11.75 
Q 45.40625 17.390625 45.40625 27.296875 
Q 45.40625 37.203125 41.296875 42.84375 
Q 37.203125 48.484375 30.078125 48.484375 
Q 22.953125 48.484375 18.875 42.84375 
Q 14.796875 37.203125 14.796875 27.296875 
z
" id="DejaVuSans-100"/>
      <path d="M 18.109375 8.203125 
L 18.109375 -20.796875 
L 9.078125 -20.796875 
L 9.078125 54.6875 
L 18.109375 54.6875 
L 18.109375 46.390625 
Q 20.953125 51.265625 25.265625 53.625 
Q 29.59375 56 35.59375 56 
Q 45.5625 56 51.78125 48.09375 
Q 58.015625 40.1875 58.015625 27.296875 
Q 58.015625 14.40625 51.78125 6.484375 
Q 45.5625 -1.421875 35.59375 -1.421875 
Q 29.59375 -1.421875 25.265625 0.953125 
Q 20.953125 3.328125 18.109375 8.203125 
z
M 48.6875 27.296875 
Q 48.6875 37.203125 44.609375 42.84375 
Q 40.53125 48.484375 33.40625 48.484375 
Q 26.265625 48.484375 22.1875 42.84375 
Q 18.109375 37.203125 18.109375 27.296875 
Q 18.109375 17.390625 22.1875 11.75 
Q 26.265625 6.109375 33.40625 6.109375 
Q 40.53125 6.109375 44.609375 11.75 
Q 48.6875 17.390625 48.6875 27.296875 
z
" id="DejaVuSans-112"/>
     </defs>
     <g transform="translate(163.727865 336.026563)scale(0.1 -0.1)">
      <use xlink:href="#DejaVuSans-116"/>
      <use x="39.208984" xlink:href="#DejaVuSans-105"/>
      <use x="66.992188" xlink:href="#DejaVuSans-109"/>
      <use x="164.404297" xlink:href="#DejaVuSans-101"/>
      <use x="225.927734" xlink:href="#DejaVuSans-32"/>
      <use x="257.714844" xlink:href="#DejaVuSans-105"/>
      <use x="285.498047" xlink:href="#DejaVuSans-110"/>
      <use x="348.876953" xlink:href="#DejaVuSans-32"/>
      <use x="380.664062" xlink:href="#DejaVuSans-53"/>
      <use x="444.287109" xlink:href="#DejaVuSans-32"/>
      <use x="476.074219" xlink:href="#DejaVuSans-115"/>
      <use x="528.173828" xlink:href="#DejaVuSans-101"/>
      <use x="589.697266" xlink:href="#DejaVuSans-99"/>
      <use x="644.677734" xlink:href="#DejaVuSans-111"/>
      <use x="705.859375" xlink:href="#DejaVuSans-110"/>
      <use x="769.238281" xlink:href="#DejaVuSans-100"/>
      <use x="832.714844" xlink:href="#DejaVuSans-32"/>
      <use x="864.501953" xlink:href="#DejaVuSans-115"/>
      <use x="916.601562" xlink:href="#DejaVuSans-116"/>
      <use x="955.810547" xlink:href="#DejaVuSans-101"/>
      <use x="1017.333984" xlink:href="#DejaVuSans-112"/>
      <use x="1080.810547" xlink:href="#DejaVuSans-115"/>
     </g>
    </g>
   </g>
   <g id="matplotlib.axis_2">
    <g id="ytick_1">
     <g id="line2d_7">
      <defs>
       <path d="M 0 0 
L -3.5 0 
" id="medf6fe5c09" style="stroke:#000000;stroke-width:0.8;"/>
      </defs>
      <g>
       <use style="stroke:#000000;stroke-width:0.8;" x="86.385417" xlink:href="#medf6fe5c09" y="294.375"/>
      </g>
     </g>
     <g id="text_8">
      <!-- 0 -->
      <g transform="translate(73.022917 298.174219)scale(0.1 -0.1)">
       <use xlink:href="#DejaVuSans-48"/>
      </g>
     </g>
    </g>
    <g id="ytick_2">
     <g id="line2d_8">
      <g>
       <use style="stroke:#000000;stroke-width:0.8;" x="86.385417" xlink:href="#medf6fe5c09" y="234.004867"/>
      </g>
     </g>
     <g id="text_9">
      <!-- 50 -->
      <g transform="translate(66.660417 237.804086)scale(0.1 -0.1)">
       <use xlink:href="#DejaVuSans-53"/>
       <use x="63.623047" xlink:href="#DejaVuSans-48"/>
      </g>
     </g>
    </g>
    <g id="ytick_3">
     <g id="line2d_9">
      <g>
       <use style="stroke:#000000;stroke-width:0.8;" x="86.385417" xlink:href="#medf6fe5c09" y="173.634734"/>
      </g>
     </g>
     <g id="text_10">
      <!-- 100 -->
      <g transform="translate(60.297917 177.433953)scale(0.1 -0.1)">
       <use xlink:href="#DejaVuSans-49"/>
       <use x="63.623047" xlink:href="#DejaVuSans-48"/>
       <use x="127.246094" xlink:href="#DejaVuSans-48"/>
      </g>
     </g>
    </g>
    <g id="ytick_4">
     <g id="line2d_10">
      <g>
       <use style="stroke:#000000;stroke-width:0.8;" x="86.385417" xlink:href="#medf6fe5c09" y="113.264602"/>
      </g>
     </g>
     <g id="text_11">
      <!-- 150 -->
      <g transform="translate(60.297917 117.06382)scale(0.1 -0.1)">
       <use xlink:href="#DejaVuSans-49"/>
       <use x="63.623047" xlink:href="#DejaVuSans-53"/>
       <use x="127.246094" xlink:href="#DejaVuSans-48"/>
      </g>
     </g>
    </g>
    <g id="ytick_5">
     <g id="line2d_11">
      <g>
       <use style="stroke:#000000;stroke-width:0.8;" x="86.385417" xlink:href="#medf6fe5c09" y="52.894469"/>
      </g>
     </g>
     <g id="text_12">
      <!-- 200 -->
      <g transform="translate(60.297917 56.693688)scale(0.1 -0.1)">
       <use xlink:href="#DejaVuSans-50"/>
       <use x="63.623047" xlink:href="#DejaVuSans-48"/>
       <use x="127.246094" xlink:href="#DejaVuSans-48"/>
      </g>
     </g>
    </g>
    <g id="text_13">
     <!-- mean_sum_distances -->
     <defs>
      <path d="M 34.28125 27.484375 
Q 23.390625 27.484375 19.1875 25 
Q 14.984375 22.515625 14.984375 16.5 
Q 14.984375 11.71875 18.140625 8.90625 
Q 21.296875 6.109375 26.703125 6.109375 
Q 34.1875 6.109375 38.703125 11.40625 
Q 43.21875 16.703125 43.21875 25.484375 
L 43.21875 27.484375 
z
M 52.203125 31.203125 
L 52.203125 0 
L 43.21875 0 
L 43.21875 8.296875 
Q 40.140625 3.328125 35.546875 0.953125 
Q 30.953125 -1.421875 24.3125 -1.421875 
Q 15.921875 -1.421875 10.953125 3.296875 
Q 6 8.015625 6 15.921875 
Q 6 25.140625 12.171875 29.828125 
Q 18.359375 34.515625 30.609375 34.515625 
L 43.21875 34.515625 
L 43.21875 35.40625 
Q 43.21875 41.609375 39.140625 45 
Q 35.0625 48.390625 27.6875 48.390625 
Q 23 48.390625 18.546875 47.265625 
Q 14.109375 46.140625 10.015625 43.890625 
L 10.015625 52.203125 
Q 14.9375 54.109375 19.578125 55.046875 
Q 24.21875 56 28.609375 56 
Q 40.484375 56 46.34375 49.84375 
Q 52.203125 43.703125 52.203125 31.203125 
z
" id="DejaVuSans-97"/>
      <path d="M 50.984375 -16.609375 
L 50.984375 -23.578125 
L -0.984375 -23.578125 
L -0.984375 -16.609375 
z
" id="DejaVuSans-95"/>
      <path d="M 8.5 21.578125 
L 8.5 54.6875 
L 17.484375 54.6875 
L 17.484375 21.921875 
Q 17.484375 14.15625 20.5 10.265625 
Q 23.53125 6.390625 29.59375 6.390625 
Q 36.859375 6.390625 41.078125 11.03125 
Q 45.3125 15.671875 45.3125 23.6875 
L 45.3125 54.6875 
L 54.296875 54.6875 
L 54.296875 0 
L 45.3125 0 
L 45.3125 8.40625 
Q 42.046875 3.421875 37.71875 1 
Q 33.40625 -1.421875 27.6875 -1.421875 
Q 18.265625 -1.421875 13.375 4.4375 
Q 8.5 10.296875 8.5 21.578125 
z
M 31.109375 56 
z
" id="DejaVuSans-117"/>
     </defs>
     <g transform="translate(53.940104 214.239844)rotate(-90)scale(0.1 -0.1)">
      <use xlink:href="#DejaVuSans-109"/>
      <use x="97.412109" xlink:href="#DejaVuSans-101"/>
      <use x="158.935547" xlink:href="#DejaVuSans-97"/>
      <use x="220.214844" xlink:href="#DejaVuSans-110"/>
      <use x="283.59375" xlink:href="#DejaVuSans-95"/>
      <use x="333.59375" xlink:href="#DejaVuSans-115"/>
      <use x="385.693359" xlink:href="#DejaVuSans-117"/>
      <use x="449.072266" xlink:href="#DejaVuSans-109"/>
      <use x="546.484375" xlink:href="#DejaVuSans-95"/>
      <use x="596.484375" xlink:href="#DejaVuSans-100"/>
      <use x="659.960938" xlink:href="#DejaVuSans-105"/>
      <use x="687.744141" xlink:href="#DejaVuSans-115"/>
      <use x="739.84375" xlink:href="#DejaVuSans-116"/>
      <use x="779.052734" xlink:href="#DejaVuSans-97"/>
      <use x="840.332031" xlink:href="#DejaVuSans-110"/>
      <use x="903.710938" xlink:href="#DejaVuSans-99"/>
      <use x="958.691406" xlink:href="#DejaVuSans-101"/>
      <use x="1020.214844" xlink:href="#DejaVuSans-115"/>
     </g>
    </g>
   </g>
   <g id="line2d_12">
    <path clip-path="url(#pa6652efa71)" d="M 98.566051 294.375 
L 103.537739 287.52005 
L 108.509426 281.402842 
L 113.481114 273.774084 
L 118.452801 265.677717 
L 123.424489 258.269122 
L 128.396176 250.567897 
L 133.367864 244.031886 
L 138.339551 237.875446 
L 143.311239 229.850979 
L 148.282927 221.90596 
L 153.254614 214.150326 
L 158.226302 207.334766 
L 163.197989 200.464403 
L 168.169677 192.521843 
L 173.141364 183.874816 
L 178.113052 176.240787 
L 183.084739 169.018026 
L 188.056427 161.323391 
L 193.028114 153.506874 
L 197.999802 146.140352 
L 202.971489 138.419332 
L 207.943177 130.971489 
L 212.914865 124.351819 
L 217.886552 117.625965 
L 222.85824 111.890613 
L 227.829927 105.91255 
L 232.801615 100.434508 
L 237.773302 94.838407 
L 242.74499 89.886496 
L 247.716677 85.69736 
L 252.688365 80.712191 
L 257.660052 76.32328 
L 262.63174 72.626124 
L 267.603427 71.690018 
L 272.575115 70.677781 
L 277.546803 70.198655 
L 282.51849 70.198655 
L 287.490178 70.198655 
L 292.461865 70.198655 
L 297.433553 70.198655 
L 302.40524 70.198655 
L 307.376928 70.198655 
L 312.348615 70.198655 
L 317.320303 70.198655 
L 322.29199 70.198655 
L 327.263678 70.198655 
L 332.235365 70.198655 
L 337.207053 70.198655 
L 342.178741 70.198655 
" style="fill:none;stroke:#1f77b4;stroke-linecap:square;stroke-width:1.5;"/>
   </g>
   <g id="line2d_13">
    <path clip-path="url(#pa6652efa71)" d="M 98.566051 294.375 
L 103.537739 285.196504 
L 108.509426 277.600208 
L 113.481114 269.908965 
L 118.452801 261.704139 
L 123.424489 254.042025 
L 128.396176 247.480884 
L 133.367864 240.540374 
L 138.339551 233.001397 
L 143.311239 225.307539 
L 148.282927 217.160441 
L 153.254614 208.962192 
L 158.226302 200.670689 
L 163.197989 192.815541 
L 168.169677 187.456718 
L 173.141364 181.723055 
L 178.113052 176.661466 
L 183.084739 170.835297 
L 188.056427 165.68798 
L 193.028114 160.845371 
L 197.999802 155.175845 
L 202.971489 150.217701 
L 207.943177 145.374675 
L 212.914865 140.559757 
L 217.886552 136.025967 
L 222.85824 131.237906 
L 227.829927 126.247212 
L 232.801615 121.447353 
L 237.773302 116.81416 
L 242.74499 112.18197 
L 247.716677 107.647714 
L 252.688365 103.032879 
L 257.660052 98.907584 
L 262.63174 94.462672 
L 267.603427 90.290445 
L 272.575115 85.38153 
L 277.546803 80.02708 
L 282.51849 75.829737 
L 287.490178 71.489089 
L 292.461865 66.572283 
L 297.433553 61.982164 
L 302.40524 57.601198 
L 307.376928 53.048258 
L 312.348615 48.727007 
L 317.320303 44.048176 
L 322.29199 39.746851 
L 327.263678 35.395986 
L 332.235365 31.077802 
L 337.207053 26.875 
L 342.178741 26.875 
" style="fill:none;stroke:#ff7f0e;stroke-linecap:square;stroke-width:1.5;"/>
   </g>
   <g id="line2d_14">
    <path clip-path="url(#pa6652efa71)" d="M 98.566051 294.375 
L 103.537739 288.659756 
L 108.509426 283.087526 
L 113.481114 274.179268 
L 118.452801 266.050796 
L 123.424489 257.940871 
L 128.396176 250.819949 
L 133.367864 243.552486 
L 138.339551 236.423241 
L 143.311239 229.315991 
L 148.282927 223.026361 
L 153.254614 215.547521 
L 158.226302 205.043225 
L 163.197989 198.176364 
L 168.169677 190.718431 
L 173.141364 184.630735 
L 178.113052 179.668759 
L 183.084739 173.429796 
L 188.056427 166.263873 
L 193.028114 159.297509 
L 197.999802 152.499395 
L 202.971489 145.150911 
L 207.943177 138.445995 
L 212.914865 132.22342 
L 217.886552 126.580369 
L 222.85824 120.8374 
L 227.829927 116.24973 
L 232.801615 111.882246 
L 237.773302 108.151551 
L 242.74499 104.651641 
L 247.716677 101.59391 
L 252.688365 98.450967 
L 257.660052 96.139433 
L 262.63174 93.69855 
L 267.603427 91.314577 
L 272.575115 88.709858 
L 277.546803 85.926992 
L 282.51849 83.373281 
L 287.490178 81.039414 
L 292.461865 79.245932 
L 297.433553 77.523253 
L 302.40524 75.93266 
L 307.376928 75.206808 
L 312.348615 74.400602 
L 317.320303 73.389975 
L 322.29199 72.544705 
L 327.263678 72.544705 
L 332.235365 72.544705 
L 337.207053 72.544705 
L 342.178741 72.544705 
" style="fill:none;stroke:#2ca02c;stroke-linecap:square;stroke-width:1.5;"/>
   </g>
   <g id="line2d_15">
    <path clip-path="url(#pa6652efa71)" d="M 98.566051 294.375 
L 103.537739 286.892422 
L 108.509426 278.04968 
L 113.481114 269.128375 
L 118.452801 260.368988 
L 123.424489 252.991222 
L 128.396176 245.414767 
L 133.367864 237.618107 
L 138.339551 229.503721 
L 143.311239 221.322032 
L 148.282927 211.922022 
L 153.254614 203.789339 
L 158.226302 197.375281 
L 163.197989 190.052387 
L 168.169677 182.225102 
L 173.141364 175.047128 
L 178.113052 166.850141 
L 183.084739 158.852503 
L 188.056427 151.120305 
L 193.028114 144.129966 
L 197.999802 136.941674 
L 202.971489 129.891605 
L 207.943177 122.681694 
L 212.914865 117.182285 
L 217.886552 111.95279 
L 222.85824 106.005647 
L 227.829927 100.282928 
L 232.801615 94.742196 
L 237.773302 90.298725 
L 242.74499 86.357896 
L 247.716677 83.021267 
L 252.688365 81.380633 
L 257.660052 79.373086 
L 262.63174 77.494846 
L 267.603427 75.473247 
L 272.575115 73.05343 
L 277.546803 71.171216 
L 282.51849 69.187035 
L 287.490178 67.674393 
L 292.461865 66.589932 
L 297.433553 65.314173 
L 302.40524 64.314728 
L 307.376928 63.257362 
L 312.348615 62.232658 
L 317.320303 61.624706 
L 322.29199 61.156679 
L 327.263678 60.691131 
L 332.235365 60.202194 
L 337.207053 59.905344 
L 342.178741 59.905344 
" style="fill:none;stroke:#d62728;stroke-linecap:square;stroke-width:1.5;"/>
   </g>
   <g id="patch_3">
    <path d="M 86.385417 307.75 
L 86.385417 13.5 
" style="fill:none;stroke:#000000;stroke-linecap:square;stroke-linejoin:miter;stroke-width:0.8;"/>
   </g>
   <g id="patch_4">
    <path d="M 354.359375 307.75 
L 354.359375 13.5 
" style="fill:none;stroke:#000000;stroke-linecap:square;stroke-linejoin:miter;stroke-width:0.8;"/>
   </g>
   <g id="patch_5">
    <path d="M 86.385417 307.75 
L 354.359375 307.75 
" style="fill:none;stroke:#000000;stroke-linecap:square;stroke-linejoin:miter;stroke-width:0.8;"/>
   </g>
   <g id="patch_6">
    <path d="M 86.385417 13.5 
L 354.359375 13.5 
" style="fill:none;stroke:#000000;stroke-linecap:square;stroke-linejoin:miter;stroke-width:0.8;"/>
   </g>
   <g id="legend_1">
    <g id="patch_7">
     <path d="M 93.385417 80.2125 
L 174.708854 80.2125 
Q 176.708854 80.2125 176.708854 78.2125 
L 176.708854 20.5 
Q 176.708854 18.5 174.708854 18.5 
L 93.385417 18.5 
Q 91.385417 18.5 91.385417 20.5 
L 91.385417 78.2125 
Q 91.385417 80.2125 93.385417 80.2125 
z
" style="fill:#ffffff;opacity:0.8;stroke:#cccccc;stroke-linejoin:miter;"/>
    </g>
    <g id="line2d_16">
     <path d="M 95.385417 26.598437 
L 115.385417 26.598437 
" style="fill:none;stroke:#1f77b4;stroke-linecap:square;stroke-width:1.5;"/>
    </g>
    <g id="line2d_17"/>
    <g id="text_14">
     <!-- nearest -->
     <defs>
      <path d="M 41.109375 46.296875 
Q 39.59375 47.171875 37.8125 47.578125 
Q 36.03125 48 33.890625 48 
Q 26.265625 48 22.1875 43.046875 
Q 18.109375 38.09375 18.109375 28.8125 
L 18.109375 0 
L 9.078125 0 
L 9.078125 54.6875 
L 18.109375 54.6875 
L 18.109375 46.1875 
Q 20.953125 51.171875 25.484375 53.578125 
Q 30.03125 56 36.53125 56 
Q 37.453125 56 38.578125 55.875 
Q 39.703125 55.765625 41.0625 55.515625 
z
" id="DejaVuSans-114"/>
     </defs>
     <g transform="translate(123.385417 30.098437)scale(0.1 -0.1)">
      <use xlink:href="#DejaVuSans-110"/>
      <use x="63.378906" xlink:href="#DejaVuSans-101"/>
      <use x="124.902344" xlink:href="#DejaVuSans-97"/>
      <use x="186.181641" xlink:href="#DejaVuSans-114"/>
      <use x="227.263672" xlink:href="#DejaVuSans-101"/>
      <use x="288.787109" xlink:href="#DejaVuSans-115"/>
      <use x="340.886719" xlink:href="#DejaVuSans-116"/>
     </g>
    </g>
    <g id="line2d_18">
     <path d="M 95.385417 41.276563 
L 115.385417 41.276563 
" style="fill:none;stroke:#ff7f0e;stroke-linecap:square;stroke-width:1.5;"/>
    </g>
    <g id="line2d_19"/>
    <g id="text_15">
     <!-- greedy -->
     <defs>
      <path d="M 45.40625 27.984375 
Q 45.40625 37.75 41.375 43.109375 
Q 37.359375 48.484375 30.078125 48.484375 
Q 22.859375 48.484375 18.828125 43.109375 
Q 14.796875 37.75 14.796875 27.984375 
Q 14.796875 18.265625 18.828125 12.890625 
Q 22.859375 7.515625 30.078125 7.515625 
Q 37.359375 7.515625 41.375 12.890625 
Q 45.40625 18.265625 45.40625 27.984375 
z
M 54.390625 6.78125 
Q 54.390625 -7.171875 48.1875 -13.984375 
Q 42 -20.796875 29.203125 -20.796875 
Q 24.46875 -20.796875 20.265625 -20.09375 
Q 16.0625 -19.390625 12.109375 -17.921875 
L 12.109375 -9.1875 
Q 16.0625 -11.328125 19.921875 -12.34375 
Q 23.78125 -13.375 27.78125 -13.375 
Q 36.625 -13.375 41.015625 -8.765625 
Q 45.40625 -4.15625 45.40625 5.171875 
L 45.40625 9.625 
Q 42.625 4.78125 38.28125 2.390625 
Q 33.9375 0 27.875 0 
Q 17.828125 0 11.671875 7.65625 
Q 5.515625 15.328125 5.515625 27.984375 
Q 5.515625 40.671875 11.671875 48.328125 
Q 17.828125 56 27.875 56 
Q 33.9375 56 38.28125 53.609375 
Q 42.625 51.21875 45.40625 46.390625 
L 45.40625 54.6875 
L 54.390625 54.6875 
z
" id="DejaVuSans-103"/>
      <path d="M 32.171875 -5.078125 
Q 28.375 -14.84375 24.75 -17.8125 
Q 21.140625 -20.796875 15.09375 -20.796875 
L 7.90625 -20.796875 
L 7.90625 -13.28125 
L 13.1875 -13.28125 
Q 16.890625 -13.28125 18.9375 -11.515625 
Q 21 -9.765625 23.484375 -3.21875 
L 25.09375 0.875 
L 2.984375 54.6875 
L 12.5 54.6875 
L 29.59375 11.921875 
L 46.6875 54.6875 
L 56.203125 54.6875 
z
" id="DejaVuSans-121"/>
     </defs>
     <g transform="translate(123.385417 44.776563)scale(0.1 -0.1)">
      <use xlink:href="#DejaVuSans-103"/>
      <use x="63.476562" xlink:href="#DejaVuSans-114"/>
      <use x="104.558594" xlink:href="#DejaVuSans-101"/>
      <use x="166.082031" xlink:href="#DejaVuSans-101"/>
      <use x="227.605469" xlink:href="#DejaVuSans-100"/>
      <use x="291.082031" xlink:href="#DejaVuSans-121"/>
     </g>
    </g>
    <g id="line2d_20">
     <path d="M 95.385417 55.954687 
L 115.385417 55.954687 
" style="fill:none;stroke:#2ca02c;stroke-linecap:square;stroke-width:1.5;"/>
    </g>
    <g id="line2d_21"/>
    <g id="text_16">
     <!-- minPos -->
     <defs>
      <path d="M 19.671875 64.796875 
L 19.671875 37.40625 
L 32.078125 37.40625 
Q 38.96875 37.40625 42.71875 40.96875 
Q 46.484375 44.53125 46.484375 51.125 
Q 46.484375 57.671875 42.71875 61.234375 
Q 38.96875 64.796875 32.078125 64.796875 
z
M 9.8125 72.90625 
L 32.078125 72.90625 
Q 44.34375 72.90625 50.609375 67.359375 
Q 56.890625 61.8125 56.890625 51.125 
Q 56.890625 40.328125 50.609375 34.8125 
Q 44.34375 29.296875 32.078125 29.296875 
L 19.671875 29.296875 
L 19.671875 0 
L 9.8125 0 
z
" id="DejaVuSans-80"/>
     </defs>
     <g transform="translate(123.385417 59.454687)scale(0.1 -0.1)">
      <use xlink:href="#DejaVuSans-109"/>
      <use x="97.412109" xlink:href="#DejaVuSans-105"/>
      <use x="125.195312" xlink:href="#DejaVuSans-110"/>
      <use x="188.574219" xlink:href="#DejaVuSans-80"/>
      <use x="248.830078" xlink:href="#DejaVuSans-111"/>
      <use x="310.011719" xlink:href="#DejaVuSans-115"/>
     </g>
    </g>
    <g id="line2d_22">
     <path d="M 95.385417 70.632812 
L 115.385417 70.632812 
" style="fill:none;stroke:#d62728;stroke-linecap:square;stroke-width:1.5;"/>
    </g>
    <g id="line2d_23"/>
    <g id="text_17">
     <!-- combined -->
     <defs>
      <path d="M 48.6875 27.296875 
Q 48.6875 37.203125 44.609375 42.84375 
Q 40.53125 48.484375 33.40625 48.484375 
Q 26.265625 48.484375 22.1875 42.84375 
Q 18.109375 37.203125 18.109375 27.296875 
Q 18.109375 17.390625 22.1875 11.75 
Q 26.265625 6.109375 33.40625 6.109375 
Q 40.53125 6.109375 44.609375 11.75 
Q 48.6875 17.390625 48.6875 27.296875 
z
M 18.109375 46.390625 
Q 20.953125 51.265625 25.265625 53.625 
Q 29.59375 56 35.59375 56 
Q 45.5625 56 51.78125 48.09375 
Q 58.015625 40.1875 58.015625 27.296875 
Q 58.015625 14.40625 51.78125 6.484375 
Q 45.5625 -1.421875 35.59375 -1.421875 
Q 29.59375 -1.421875 25.265625 0.953125 
Q 20.953125 3.328125 18.109375 8.203125 
L 18.109375 0 
L 9.078125 0 
L 9.078125 75.984375 
L 18.109375 75.984375 
z
" id="DejaVuSans-98"/>
     </defs>
     <g transform="translate(123.385417 74.132812)scale(0.1 -0.1)">
      <use xlink:href="#DejaVuSans-99"/>
      <use x="54.980469" xlink:href="#DejaVuSans-111"/>
      <use x="116.162109" xlink:href="#DejaVuSans-109"/>
      <use x="213.574219" xlink:href="#DejaVuSans-98"/>
      <use x="277.050781" xlink:href="#DejaVuSans-105"/>
      <use x="304.833984" xlink:href="#DejaVuSans-110"/>
      <use x="368.212891" xlink:href="#DejaVuSans-101"/>
      <use x="429.736328" xlink:href="#DejaVuSans-100"/>
     </g>
    </g>
   </g>
  </g>
  <g id="axes_2">
   <g id="patch_8">
    <path d="M 434.026042 307.75 
L 702 307.75 
L 702 13.5 
L 434.026042 13.5 
z
" style="fill:#ffffff;"/>
   </g>
   <g id="matplotlib.axis_3">
    <g id="xtick_7">
     <g id="line2d_24">
      <g>
       <use style="stroke:#000000;stroke-width:0.8;" x="446.206676" xlink:href="#mfe9ea6004c" y="307.75"/>
      </g>
     </g>
     <g id="text_18">
      <!-- 0 -->
      <g transform="translate(443.025426 322.348437)scale(0.1 -0.1)">
       <use xlink:href="#DejaVuSans-48"/>
      </g>
     </g>
    </g>
    <g id="xtick_8">
     <g id="line2d_25">
      <g>
       <use style="stroke:#000000;stroke-width:0.8;" x="495.923552" xlink:href="#mfe9ea6004c" y="307.75"/>
      </g>
     </g>
     <g id="text_19">
      <!-- 10 -->
      <g transform="translate(489.561052 322.348437)scale(0.1 -0.1)">
       <use xlink:href="#DejaVuSans-49"/>
       <use x="63.623047" xlink:href="#DejaVuSans-48"/>
      </g>
     </g>
    </g>
    <g id="xtick_9">
     <g id="line2d_26">
      <g>
       <use style="stroke:#000000;stroke-width:0.8;" x="545.640427" xlink:href="#mfe9ea6004c" y="307.75"/>
      </g>
     </g>
     <g id="text_20">
      <!-- 20 -->
      <g transform="translate(539.277927 322.348437)scale(0.1 -0.1)">
       <use xlink:href="#DejaVuSans-50"/>
       <use x="63.623047" xlink:href="#DejaVuSans-48"/>
      </g>
     </g>
    </g>
    <g id="xtick_10">
     <g id="line2d_27">
      <g>
       <use style="stroke:#000000;stroke-width:0.8;" x="595.357302" xlink:href="#mfe9ea6004c" y="307.75"/>
      </g>
     </g>
     <g id="text_21">
      <!-- 30 -->
      <g transform="translate(588.994802 322.348437)scale(0.1 -0.1)">
       <use xlink:href="#DejaVuSans-51"/>
       <use x="63.623047" xlink:href="#DejaVuSans-48"/>
      </g>
     </g>
    </g>
    <g id="xtick_11">
     <g id="line2d_28">
      <g>
       <use style="stroke:#000000;stroke-width:0.8;" x="645.074178" xlink:href="#mfe9ea6004c" y="307.75"/>
      </g>
     </g>
     <g id="text_22">
      <!-- 40 -->
      <g transform="translate(638.711678 322.348437)scale(0.1 -0.1)">
       <use xlink:href="#DejaVuSans-52"/>
       <use x="63.623047" xlink:href="#DejaVuSans-48"/>
      </g>
     </g>
    </g>
    <g id="xtick_12">
     <g id="line2d_29">
      <g>
       <use style="stroke:#000000;stroke-width:0.8;" x="694.791053" xlink:href="#mfe9ea6004c" y="307.75"/>
      </g>
     </g>
     <g id="text_23">
      <!-- 50 -->
      <g transform="translate(688.428553 322.348437)scale(0.1 -0.1)">
       <use xlink:href="#DejaVuSans-53"/>
       <use x="63.623047" xlink:href="#DejaVuSans-48"/>
      </g>
     </g>
    </g>
    <g id="text_24">
     <!-- time in 5 second steps -->
     <g transform="translate(511.36849 336.026563)scale(0.1 -0.1)">
      <use xlink:href="#DejaVuSans-116"/>
      <use x="39.208984" xlink:href="#DejaVuSans-105"/>
      <use x="66.992188" xlink:href="#DejaVuSans-109"/>
      <use x="164.404297" xlink:href="#DejaVuSans-101"/>
      <use x="225.927734" xlink:href="#DejaVuSans-32"/>
      <use x="257.714844" xlink:href="#DejaVuSans-105"/>
      <use x="285.498047" xlink:href="#DejaVuSans-110"/>
      <use x="348.876953" xlink:href="#DejaVuSans-32"/>
      <use x="380.664062" xlink:href="#DejaVuSans-53"/>
      <use x="444.287109" xlink:href="#DejaVuSans-32"/>
      <use x="476.074219" xlink:href="#DejaVuSans-115"/>
      <use x="528.173828" xlink:href="#DejaVuSans-101"/>
      <use x="589.697266" xlink:href="#DejaVuSans-99"/>
      <use x="644.677734" xlink:href="#DejaVuSans-111"/>
      <use x="705.859375" xlink:href="#DejaVuSans-110"/>
      <use x="769.238281" xlink:href="#DejaVuSans-100"/>
      <use x="832.714844" xlink:href="#DejaVuSans-32"/>
      <use x="864.501953" xlink:href="#DejaVuSans-115"/>
      <use x="916.601562" xlink:href="#DejaVuSans-116"/>
      <use x="955.810547" xlink:href="#DejaVuSans-101"/>
      <use x="1017.333984" xlink:href="#DejaVuSans-112"/>
      <use x="1080.810547" xlink:href="#DejaVuSans-115"/>
     </g>
    </g>
   </g>
   <g id="matplotlib.axis_4">
    <g id="ytick_6">
     <g id="line2d_30">
      <g>
       <use style="stroke:#000000;stroke-width:0.8;" x="434.026042" xlink:href="#medf6fe5c09" y="275.228348"/>
      </g>
     </g>
     <g id="text_25">
      <!-- 0.2 -->
      <defs>
       <path d="M 10.6875 12.40625 
L 21 12.40625 
L 21 0 
L 10.6875 0 
z
" id="DejaVuSans-46"/>
      </defs>
      <g transform="translate(411.122917 279.027567)scale(0.1 -0.1)">
       <use xlink:href="#DejaVuSans-48"/>
       <use x="63.623047" xlink:href="#DejaVuSans-46"/>
       <use x="95.410156" xlink:href="#DejaVuSans-50"/>
      </g>
     </g>
    </g>
    <g id="ytick_7">
     <g id="line2d_31">
      <g>
       <use style="stroke:#000000;stroke-width:0.8;" x="434.026042" xlink:href="#medf6fe5c09" y="242.323743"/>
      </g>
     </g>
     <g id="text_26">
      <!-- 0.3 -->
      <g transform="translate(411.122917 246.122961)scale(0.1 -0.1)">
       <use xlink:href="#DejaVuSans-48"/>
       <use x="63.623047" xlink:href="#DejaVuSans-46"/>
       <use x="95.410156" xlink:href="#DejaVuSans-51"/>
      </g>
     </g>
    </g>
    <g id="ytick_8">
     <g id="line2d_32">
      <g>
       <use style="stroke:#000000;stroke-width:0.8;" x="434.026042" xlink:href="#medf6fe5c09" y="209.419137"/>
      </g>
     </g>
     <g id="text_27">
      <!-- 0.4 -->
      <g transform="translate(411.122917 213.218356)scale(0.1 -0.1)">
       <use xlink:href="#DejaVuSans-48"/>
       <use x="63.623047" xlink:href="#DejaVuSans-46"/>
       <use x="95.410156" xlink:href="#DejaVuSans-52"/>
      </g>
     </g>
    </g>
    <g id="ytick_9">
     <g id="line2d_33">
      <g>
       <use style="stroke:#000000;stroke-width:0.8;" x="434.026042" xlink:href="#medf6fe5c09" y="176.514531"/>
      </g>
     </g>
     <g id="text_28">
      <!-- 0.5 -->
      <g transform="translate(411.122917 180.31375)scale(0.1 -0.1)">
       <use xlink:href="#DejaVuSans-48"/>
       <use x="63.623047" xlink:href="#DejaVuSans-46"/>
       <use x="95.410156" xlink:href="#DejaVuSans-53"/>
      </g>
     </g>
    </g>
    <g id="ytick_10">
     <g id="line2d_34">
      <g>
       <use style="stroke:#000000;stroke-width:0.8;" x="434.026042" xlink:href="#medf6fe5c09" y="143.609926"/>
      </g>
     </g>
     <g id="text_29">
      <!-- 0.6 -->
      <defs>
       <path d="M 33.015625 40.375 
Q 26.375 40.375 22.484375 35.828125 
Q 18.609375 31.296875 18.609375 23.390625 
Q 18.609375 15.53125 22.484375 10.953125 
Q 26.375 6.390625 33.015625 6.390625 
Q 39.65625 6.390625 43.53125 10.953125 
Q 47.40625 15.53125 47.40625 23.390625 
Q 47.40625 31.296875 43.53125 35.828125 
Q 39.65625 40.375 33.015625 40.375 
z
M 52.59375 71.296875 
L 52.59375 62.3125 
Q 48.875 64.0625 45.09375 64.984375 
Q 41.3125 65.921875 37.59375 65.921875 
Q 27.828125 65.921875 22.671875 59.328125 
Q 17.53125 52.734375 16.796875 39.40625 
Q 19.671875 43.65625 24.015625 45.921875 
Q 28.375 48.1875 33.59375 48.1875 
Q 44.578125 48.1875 50.953125 41.515625 
Q 57.328125 34.859375 57.328125 23.390625 
Q 57.328125 12.15625 50.6875 5.359375 
Q 44.046875 -1.421875 33.015625 -1.421875 
Q 20.359375 -1.421875 13.671875 8.265625 
Q 6.984375 17.96875 6.984375 36.375 
Q 6.984375 53.65625 15.1875 63.9375 
Q 23.390625 74.21875 37.203125 74.21875 
Q 40.921875 74.21875 44.703125 73.484375 
Q 48.484375 72.75 52.59375 71.296875 
z
" id="DejaVuSans-54"/>
      </defs>
      <g transform="translate(411.122917 147.409145)scale(0.1 -0.1)">
       <use xlink:href="#DejaVuSans-48"/>
       <use x="63.623047" xlink:href="#DejaVuSans-46"/>
       <use x="95.410156" xlink:href="#DejaVuSans-54"/>
      </g>
     </g>
    </g>
    <g id="ytick_11">
     <g id="line2d_35">
      <g>
       <use style="stroke:#000000;stroke-width:0.8;" x="434.026042" xlink:href="#medf6fe5c09" y="110.70532"/>
      </g>
     </g>
     <g id="text_30">
      <!-- 0.7 -->
      <defs>
       <path d="M 8.203125 72.90625 
L 55.078125 72.90625 
L 55.078125 68.703125 
L 28.609375 0 
L 18.3125 0 
L 43.21875 64.59375 
L 8.203125 64.59375 
z
" id="DejaVuSans-55"/>
      </defs>
      <g transform="translate(411.122917 114.504539)scale(0.1 -0.1)">
       <use xlink:href="#DejaVuSans-48"/>
       <use x="63.623047" xlink:href="#DejaVuSans-46"/>
       <use x="95.410156" xlink:href="#DejaVuSans-55"/>
      </g>
     </g>
    </g>
    <g id="ytick_12">
     <g id="line2d_36">
      <g>
       <use style="stroke:#000000;stroke-width:0.8;" x="434.026042" xlink:href="#medf6fe5c09" y="77.800715"/>
      </g>
     </g>
     <g id="text_31">
      <!-- 0.8 -->
      <defs>
       <path d="M 31.78125 34.625 
Q 24.75 34.625 20.71875 30.859375 
Q 16.703125 27.09375 16.703125 20.515625 
Q 16.703125 13.921875 20.71875 10.15625 
Q 24.75 6.390625 31.78125 6.390625 
Q 38.8125 6.390625 42.859375 10.171875 
Q 46.921875 13.96875 46.921875 20.515625 
Q 46.921875 27.09375 42.890625 30.859375 
Q 38.875 34.625 31.78125 34.625 
z
M 21.921875 38.8125 
Q 15.578125 40.375 12.03125 44.71875 
Q 8.5 49.078125 8.5 55.328125 
Q 8.5 64.0625 14.71875 69.140625 
Q 20.953125 74.21875 31.78125 74.21875 
Q 42.671875 74.21875 48.875 69.140625 
Q 55.078125 64.0625 55.078125 55.328125 
Q 55.078125 49.078125 51.53125 44.71875 
Q 48 40.375 41.703125 38.8125 
Q 48.828125 37.15625 52.796875 32.3125 
Q 56.78125 27.484375 56.78125 20.515625 
Q 56.78125 9.90625 50.3125 4.234375 
Q 43.84375 -1.421875 31.78125 -1.421875 
Q 19.734375 -1.421875 13.25 4.234375 
Q 6.78125 9.90625 6.78125 20.515625 
Q 6.78125 27.484375 10.78125 32.3125 
Q 14.796875 37.15625 21.921875 38.8125 
z
M 18.3125 54.390625 
Q 18.3125 48.734375 21.84375 45.5625 
Q 25.390625 42.390625 31.78125 42.390625 
Q 38.140625 42.390625 41.71875 45.5625 
Q 45.3125 48.734375 45.3125 54.390625 
Q 45.3125 60.0625 41.71875 63.234375 
Q 38.140625 66.40625 31.78125 66.40625 
Q 25.390625 66.40625 21.84375 63.234375 
Q 18.3125 60.0625 18.3125 54.390625 
z
" id="DejaVuSans-56"/>
      </defs>
      <g transform="translate(411.122917 81.599933)scale(0.1 -0.1)">
       <use xlink:href="#DejaVuSans-48"/>
       <use x="63.623047" xlink:href="#DejaVuSans-46"/>
       <use x="95.410156" xlink:href="#DejaVuSans-56"/>
      </g>
     </g>
    </g>
    <g id="ytick_13">
     <g id="line2d_37">
      <g>
       <use style="stroke:#000000;stroke-width:0.8;" x="434.026042" xlink:href="#medf6fe5c09" y="44.896109"/>
      </g>
     </g>
     <g id="text_32">
      <!-- 0.9 -->
      <defs>
       <path d="M 10.984375 1.515625 
L 10.984375 10.5 
Q 14.703125 8.734375 18.5 7.8125 
Q 22.3125 6.890625 25.984375 6.890625 
Q 35.75 6.890625 40.890625 13.453125 
Q 46.046875 20.015625 46.78125 33.40625 
Q 43.953125 29.203125 39.59375 26.953125 
Q 35.25 24.703125 29.984375 24.703125 
Q 19.046875 24.703125 12.671875 31.3125 
Q 6.296875 37.9375 6.296875 49.421875 
Q 6.296875 60.640625 12.9375 67.421875 
Q 19.578125 74.21875 30.609375 74.21875 
Q 43.265625 74.21875 49.921875 64.515625 
Q 56.59375 54.828125 56.59375 36.375 
Q 56.59375 19.140625 48.40625 8.859375 
Q 40.234375 -1.421875 26.421875 -1.421875 
Q 22.703125 -1.421875 18.890625 -0.6875 
Q 15.09375 0.046875 10.984375 1.515625 
z
M 30.609375 32.421875 
Q 37.25 32.421875 41.125 36.953125 
Q 45.015625 41.5 45.015625 49.421875 
Q 45.015625 57.28125 41.125 61.84375 
Q 37.25 66.40625 30.609375 66.40625 
Q 23.96875 66.40625 20.09375 61.84375 
Q 16.21875 57.28125 16.21875 49.421875 
Q 16.21875 41.5 20.09375 36.953125 
Q 23.96875 32.421875 30.609375 32.421875 
z
" id="DejaVuSans-57"/>
      </defs>
      <g transform="translate(411.122917 48.695328)scale(0.1 -0.1)">
       <use xlink:href="#DejaVuSans-48"/>
       <use x="63.623047" xlink:href="#DejaVuSans-46"/>
       <use x="95.410156" xlink:href="#DejaVuSans-57"/>
      </g>
     </g>
    </g>
    <g id="text_33">
     <!-- mean_coverage -->
     <defs>
      <path d="M 2.984375 54.6875 
L 12.5 54.6875 
L 29.59375 8.796875 
L 46.6875 54.6875 
L 56.203125 54.6875 
L 35.6875 0 
L 23.484375 0 
z
" id="DejaVuSans-118"/>
     </defs>
     <g transform="translate(404.765104 200.519531)rotate(-90)scale(0.1 -0.1)">
      <use xlink:href="#DejaVuSans-109"/>
      <use x="97.412109" xlink:href="#DejaVuSans-101"/>
      <use x="158.935547" xlink:href="#DejaVuSans-97"/>
      <use x="220.214844" xlink:href="#DejaVuSans-110"/>
      <use x="283.59375" xlink:href="#DejaVuSans-95"/>
      <use x="333.59375" xlink:href="#DejaVuSans-99"/>
      <use x="388.574219" xlink:href="#DejaVuSans-111"/>
      <use x="449.755859" xlink:href="#DejaVuSans-118"/>
      <use x="508.935547" xlink:href="#DejaVuSans-101"/>
      <use x="570.458984" xlink:href="#DejaVuSans-114"/>
      <use x="611.572266" xlink:href="#DejaVuSans-97"/>
      <use x="672.851562" xlink:href="#DejaVuSans-103"/>
      <use x="736.328125" xlink:href="#DejaVuSans-101"/>
     </g>
    </g>
   </g>
   <g id="line2d_38">
    <path clip-path="url(#pfbff506602)" d="M 446.206676 294.349107 
L 451.178364 294.349107 
L 456.150051 250.778097 
L 461.121739 229.585531 
L 466.093426 216.349818 
L 471.065114 206.953677 
L 476.036801 191.18539 
L 481.008489 173.107629 
L 485.980176 147.019019 
L 490.951864 131.681101 
L 495.923552 118.735368 
L 500.895239 112.200008 
L 505.866927 102.858967 
L 510.838614 96.515353 
L 515.810302 88.354298 
L 520.781989 82.506706 
L 525.753677 74.710183 
L 530.725364 68.389087 
L 535.697052 62.582851 
L 540.668739 59.533331 
L 545.640427 58.432865 
L 550.612114 57.652262 
L 555.583802 56.778025 
L 560.55549 56.153457 
L 565.527177 53.230949 
L 570.498865 51.444925 
L 575.470552 49.416718 
L 580.44224 45.767112 
L 585.413927 44.918216 
L 590.385615 43.911323 
L 595.357302 43.55937 
L 600.32899 43.531881 
L 605.300677 43.182874 
L 610.272365 42.169047 
L 615.244052 38.018387 
L 620.21574 37.291104 
L 625.187428 37.237661 
L 630.159115 37.209497 
L 635.130803 37.178511 
L 640.10249 37.128933 
L 645.074178 35.867463 
L 650.045865 35.365673 
L 655.017553 35.144782 
L 659.98924 34.827926 
L 664.960928 34.788473 
L 669.932615 34.637285 
L 674.904303 32.808371 
L 679.87599 31.178197 
L 684.847678 29.683933 
L 689.819366 29.179013 
" style="fill:none;stroke:#1f77b4;stroke-linecap:square;stroke-width:1.5;"/>
   </g>
   <g id="line2d_39">
    <path clip-path="url(#pfbff506602)" d="M 446.206676 294.332279 
L 451.178364 294.332279 
L 456.150051 248.145678 
L 461.121739 230.309094 
L 466.093426 217.411489 
L 471.065114 212.320164 
L 476.036801 202.982905 
L 481.008489 197.165195 
L 485.980176 188.056143 
L 490.951864 180.685501 
L 495.923552 169.704883 
L 500.895239 165.250207 
L 505.866927 156.389174 
L 510.838614 151.433076 
L 515.810302 148.290422 
L 520.781989 144.25737 
L 525.753677 135.682805 
L 530.725364 131.512664 
L 535.697052 125.125124 
L 540.668739 121.214737 
L 545.640427 118.089201 
L 550.612114 117.16857 
L 555.583802 112.702918 
L 560.55549 108.653714 
L 565.527177 105.635311 
L 570.498865 104.006518 
L 575.470552 100.857099 
L 580.44224 98.330109 
L 585.413927 95.646493 
L 590.385615 91.561049 
L 595.357302 87.181752 
L 600.32899 85.258622 
L 605.300677 81.137766 
L 610.272365 78.098793 
L 615.244052 73.877018 
L 620.21574 72.862577 
L 625.187428 70.098613 
L 630.159115 67.478848 
L 635.130803 61.967831 
L 640.10249 59.668703 
L 645.074178 56.995304 
L 650.045865 52.893017 
L 655.017553 48.260731 
L 659.98924 47.166838 
L 664.960928 43.524005 
L 669.932615 42.251536 
L 674.904303 40.036692 
L 679.87599 38.164711 
L 684.847678 36.647123 
L 689.819366 35.199598 
" style="fill:none;stroke:#ff7f0e;stroke-linecap:square;stroke-width:1.5;"/>
   </g>
   <g id="line2d_40">
    <path clip-path="url(#pfbff506602)" d="M 446.206676 294.375 
L 451.178364 294.375 
L 456.150051 252.60241 
L 461.121739 231.10483 
L 466.093426 216.570893 
L 471.065114 205.754302 
L 476.036801 186.981348 
L 481.008489 174.535872 
L 485.980176 149.145031 
L 490.951864 136.353124 
L 495.923552 123.52428 
L 500.895239 114.915124 
L 505.866927 104.242419 
L 510.838614 99.521799 
L 515.810302 90.474481 
L 520.781989 81.481835 
L 525.753677 73.547132 
L 530.725364 70.027237 
L 535.697052 65.072289 
L 540.668739 63.463407 
L 545.640427 59.777108 
L 550.612114 58.50263 
L 555.583802 52.898631 
L 560.55549 49.946426 
L 565.527177 46.821804 
L 570.498865 45.293301 
L 575.470552 43.6908 
L 580.44224 41.350094 
L 585.413927 38.595218 
L 590.385615 35.857032 
L 595.357302 34.076591 
L 600.32899 33.409562 
L 605.300677 32.836105 
L 610.272365 32.506426 
L 615.244052 31.805405 
L 620.21574 30.926566 
L 625.187428 30.172531 
L 630.159115 29.441505 
L 635.130803 27.708065 
L 640.10249 27.165533 
L 645.074178 27.159029 
L 650.045865 27.162833 
L 655.017553 27.196396 
L 659.98924 27.214681 
L 664.960928 27.243826 
L 669.932615 27.261313 
L 674.904303 27.270394 
L 679.87599 27.287023 
L 684.847678 27.294018 
L 689.819366 27.299662 
" style="fill:none;stroke:#2ca02c;stroke-linecap:square;stroke-width:1.5;"/>
   </g>
   <g id="line2d_41">
    <path clip-path="url(#pfbff506602)" d="M 446.206676 294.366164 
L 451.178364 294.366164 
L 456.150051 246.397834 
L 461.121739 225.282947 
L 466.093426 205.001187 
L 471.065114 196.84363 
L 476.036801 180.242094 
L 481.008489 170.01479 
L 485.980176 146.602885 
L 490.951864 137.260249 
L 495.923552 120.143915 
L 500.895239 110.556949 
L 505.866927 99.969962 
L 510.838614 95.946375 
L 515.810302 91.471312 
L 520.781989 87.437049 
L 525.753677 81.567798 
L 530.725364 78.634675 
L 535.697052 75.592028 
L 540.668739 72.954285 
L 545.640427 68.211024 
L 550.612114 65.783189 
L 555.583802 62.72011 
L 560.55549 59.870741 
L 565.527177 56.716544 
L 570.498865 54.505182 
L 575.470552 51.096592 
L 580.44224 49.369656 
L 585.413927 46.757377 
L 590.385615 45.298701 
L 595.357302 44.039439 
L 600.32899 42.777846 
L 605.300677 40.025609 
L 610.272365 38.517784 
L 615.244052 36.25304 
L 620.21574 35.949561 
L 625.187428 34.311901 
L 630.159115 33.228493 
L 635.130803 32.446724 
L 640.10249 31.138008 
L 645.074178 28.979291 
L 650.045865 28.407798 
L 655.017553 27.599092 
L 659.98924 26.875 
L 664.960928 26.982868 
L 669.932615 27.008762 
L 674.904303 27.035882 
L 679.87599 27.153322 
L 684.847678 27.210079 
L 689.819366 27.245299 
" style="fill:none;stroke:#d62728;stroke-linecap:square;stroke-width:1.5;"/>
   </g>
   <g id="patch_9">
    <path d="M 434.026042 307.75 
L 434.026042 13.5 
" style="fill:none;stroke:#000000;stroke-linecap:square;stroke-linejoin:miter;stroke-width:0.8;"/>
   </g>
   <g id="patch_10">
    <path d="M 702 307.75 
L 702 13.5 
" style="fill:none;stroke:#000000;stroke-linecap:square;stroke-linejoin:miter;stroke-width:0.8;"/>
   </g>
   <g id="patch_11">
    <path d="M 434.026042 307.75 
L 702 307.75 
" style="fill:none;stroke:#000000;stroke-linecap:square;stroke-linejoin:miter;stroke-width:0.8;"/>
   </g>
   <g id="patch_12">
    <path d="M 434.026042 13.5 
L 702 13.5 
" style="fill:none;stroke:#000000;stroke-linecap:square;stroke-linejoin:miter;stroke-width:0.8;"/>
   </g>
   <g id="legend_2">
    <g id="patch_13">
     <path d="M 613.676563 302.75 
L 695 302.75 
Q 697 302.75 697 300.75 
L 697 243.0375 
Q 697 241.0375 695 241.0375 
L 613.676563 241.0375 
Q 611.676563 241.0375 611.676563 243.0375 
L 611.676563 300.75 
Q 611.676563 302.75 613.676563 302.75 
z
" style="fill:#ffffff;opacity:0.8;stroke:#cccccc;stroke-linejoin:miter;"/>
    </g>
    <g id="line2d_42">
     <path d="M 615.676563 249.135937 
L 635.676563 249.135937 
" style="fill:none;stroke:#1f77b4;stroke-linecap:square;stroke-width:1.5;"/>
    </g>
    <g id="line2d_43"/>
    <g id="text_34">
     <!-- nearest -->
     <g transform="translate(643.676563 252.635937)scale(0.1 -0.1)">
      <use xlink:href="#DejaVuSans-110"/>
      <use x="63.378906" xlink:href="#DejaVuSans-101"/>
      <use x="124.902344" xlink:href="#DejaVuSans-97"/>
      <use x="186.181641" xlink:href="#DejaVuSans-114"/>
      <use x="227.263672" xlink:href="#DejaVuSans-101"/>
      <use x="288.787109" xlink:href="#DejaVuSans-115"/>
      <use x="340.886719" xlink:href="#DejaVuSans-116"/>
     </g>
    </g>
    <g id="line2d_44">
     <path d="M 615.676563 263.814062 
L 635.676563 263.814062 
" style="fill:none;stroke:#ff7f0e;stroke-linecap:square;stroke-width:1.5;"/>
    </g>
    <g id="line2d_45"/>
    <g id="text_35">
     <!-- greedy -->
     <g transform="translate(643.676563 267.314062)scale(0.1 -0.1)">
      <use xlink:href="#DejaVuSans-103"/>
      <use x="63.476562" xlink:href="#DejaVuSans-114"/>
      <use x="104.558594" xlink:href="#DejaVuSans-101"/>
      <use x="166.082031" xlink:href="#DejaVuSans-101"/>
      <use x="227.605469" xlink:href="#DejaVuSans-100"/>
      <use x="291.082031" xlink:href="#DejaVuSans-121"/>
     </g>
    </g>
    <g id="line2d_46">
     <path d="M 615.676563 278.492188 
L 635.676563 278.492188 
" style="fill:none;stroke:#2ca02c;stroke-linecap:square;stroke-width:1.5;"/>
    </g>
    <g id="line2d_47"/>
    <g id="text_36">
     <!-- minPos -->
     <g transform="translate(643.676563 281.992188)scale(0.1 -0.1)">
      <use xlink:href="#DejaVuSans-109"/>
      <use x="97.412109" xlink:href="#DejaVuSans-105"/>
      <use x="125.195312" xlink:href="#DejaVuSans-110"/>
      <use x="188.574219" xlink:href="#DejaVuSans-80"/>
      <use x="248.830078" xlink:href="#DejaVuSans-111"/>
      <use x="310.011719" xlink:href="#DejaVuSans-115"/>
     </g>
    </g>
    <g id="line2d_48">
     <path d="M 615.676563 293.170312 
L 635.676563 293.170312 
" style="fill:none;stroke:#d62728;stroke-linecap:square;stroke-width:1.5;"/>
    </g>
    <g id="line2d_49"/>
    <g id="text_37">
     <!-- combined -->
     <g transform="translate(643.676563 296.670312)scale(0.1 -0.1)">
      <use xlink:href="#DejaVuSans-99"/>
      <use x="54.980469" xlink:href="#DejaVuSans-111"/>
      <use x="116.162109" xlink:href="#DejaVuSans-109"/>
      <use x="213.574219" xlink:href="#DejaVuSans-98"/>
      <use x="277.050781" xlink:href="#DejaVuSans-105"/>
      <use x="304.833984" xlink:href="#DejaVuSans-110"/>
      <use x="368.212891" xlink:href="#DejaVuSans-101"/>
      <use x="429.736328" xlink:href="#DejaVuSans-100"/>
     </g>
    </g>
   </g>
  </g>
 </g>
 <defs>
  <clipPath id="pa6652efa71">
   <rect height="294.25" width="267.973958" x="86.385417" y="13.5"/>
  </clipPath>
  <clipPath id="pfbff506602">
   <rect height="294.25" width="267.973958" x="434.026042" y="13.5"/>
  </clipPath>
 </defs>
</svg>
